<svg width="226" height="32" viewBox="0 0 226 32" fill="none" xmlns="http://www.w3.org/2000/svg">
<g clip-path="url(#clip0_1801_1944)">
<path d="M49.0234 30.3567V25.0161C48.1179 28.7724 45.7864 31.9768 42.4184 31.9768C40.0234 31.9768 38.0137 30.456 38.0137 27.7361C38.0137 24.4007 41.4135 23.1062 45.429 21.9746L49.0234 20.9382C48.9599 17.7338 47.2083 16.5029 44.8134 16.5029C42.9983 16.5029 41.2189 17.2812 39.5666 19.2546L39.241 18.9648C41.0561 16.7293 43.5464 15.2402 46.4934 15.2402C50.4136 15.2402 52.2565 17.3447 52.2565 21.2956V27.5455C52.2565 29.8763 52.4829 30.8491 53.5513 31.2025V31.6552H50.3143C49.4723 31.6552 49.0195 31.2025 49.0195 30.3607L49.0234 30.3567ZM44.0349 29.6103C47.2083 29.6103 48.9877 25.1432 49.0234 22.2287V21.3869L45.5561 22.3915C44.0349 22.8124 41.0243 23.9123 41.0243 26.6005C41.0243 28.7367 42.5455 29.6103 44.0349 29.6103Z" fill="#32211E"/>
<path d="M56.666 31.1978C57.7344 30.8404 57.9608 29.8716 57.9608 27.5407V20.0956C57.9608 18.1857 57.4763 17.8601 56.666 17.5067V17.0541L60.9396 15.1759L61.2653 15.434V27.5407C61.2653 29.8716 61.4917 30.8444 62.5601 31.1978V31.6504H56.666V31.1978ZM57.2181 11.8683C57.2181 10.6056 58.1912 9.63281 59.4185 9.63281C60.7133 9.63281 61.6228 10.6056 61.6228 11.8683C61.6228 13.131 60.6497 14.0681 59.4185 14.0681C58.1872 14.0681 57.2181 13.0953 57.2181 11.8683Z" fill="#32211E"/>
<path d="M67.8018 27.0842V15.9781H65.7285V15.4619L70.586 11.1895H71.1023V15.4619H76.1227L75.9916 15.9781H71.1023V27.116C71.1023 29.1212 71.845 29.9987 73.2709 29.9987C73.9819 29.9987 75.086 29.7089 76.1544 28.3787L76.4801 28.7043C74.7643 30.6777 73.112 31.9762 71.1698 31.9762C68.9695 31.9762 67.8018 30.5824 67.8018 27.0882V27.0842Z" fill="#32211E"/>
<path d="M79.4916 30.3885L79.1699 26.1478L79.4916 26.0843C80.8857 29.1933 83.2172 31.3613 86.0967 31.3931C88.1025 31.4249 89.4012 30.0987 89.4012 28.6096C89.4012 26.5369 87.749 25.7269 84.933 24.8533C81.5331 23.817 79.4281 22.8799 79.4281 19.9654C79.4281 17.5035 81.3385 15.2402 85.7432 15.2402C87.5901 15.2402 89.5641 15.5976 90.6643 16.0503L90.8271 19.612L90.4379 19.6755C89.3377 17.3765 87.328 15.6929 84.9647 15.6929C82.9233 15.6929 81.5967 16.761 81.5967 18.1547C81.5967 19.9694 83.2172 20.7436 86.1285 21.7165C88.7181 22.59 91.5698 23.3683 91.5698 26.668C91.5698 29.1298 90.0168 31.9133 85.3182 31.9133C82.955 31.9133 80.7189 31.2025 79.4877 30.3925L79.4916 30.3885Z" fill="#32211E"/>
<path d="M25.3556 31.9726C17.6543 31.9726 12.9199 27.9781 12.9199 20.7633C12.9199 14.2592 18.0753 8.87891 25.9672 8.87891C28.3503 8.87891 28.4496 9.4904 25.1292 9.4904C19.9738 9.4904 16.3317 12.9052 16.3317 19.3139C16.3317 25.7227 20.0056 31.2976 26.2889 31.2976" fill="#32211E"/>
<path d="M25.1292 9.4904C19.9738 9.4904 16.3317 12.9052 16.3317 19.3139C16.3317 25.7227 20.0056 31.2976 26.2889 31.2976C29.8993 31.2976 33.4937 29.9634 33.4937 29.9634L33.4421 30.428C31.7342 31.2023 29.2876 31.9726 25.3556 31.9726C17.6543 31.9726 12.9199 27.9781 12.9199 20.7633C12.9199 14.2592 18.0753 8.87891 25.9672 8.87891" fill="#32211E"/>
<path d="M15.8545 13.1542C16.2001 9.75126 15.5566 4.00961 12.7605 1.74233C11.3505 0.59082 8.85228 0.80921 8.10559 2.58809C7.44627 4.44242 8.62192 6.41189 9.80154 7.8215C10.6555 8.88565 11.6246 9.82274 12.7605 10.5772C13.9004 11.3753 15.1237 12.1218 16.2199 13.0708L16.0055 13.3884C14.0911 12.4355 12.0257 11.6413 10.3655 10.2079C8.20488 8.22254 5.96877 5.26038 7.10867 2.17117C8.16516 -0.223177 11.4419 -0.62819 13.3642 0.92039C15.644 2.68736 16.4265 6.20144 16.7839 8.92138C16.9388 10.3667 16.9269 11.8359 16.6807 13.2733L15.8545 13.1581V13.1542Z" fill="#32211E"/>
<path d="M0 16.9626C3.14565 13.913 7.6417 12.4359 11.9908 12.563C17.5672 12.7774 22.1705 16.1684 27.584 15.5569C28.5928 15.4537 29.6017 15.2035 30.3603 14.6715C32.088 13.3452 31.5915 11.4036 29.6017 10.5379C27.7548 9.62467 25.6299 9.67629 23.6241 9.86688C22.5915 9.97409 21.6025 10.1726 20.7168 10.6531C19.8271 11.1137 18.9652 11.749 18.2622 12.4478L17.456 11.6061C19.1678 10.125 21.2172 9.03303 23.4851 8.77097C25.6974 8.47316 28.0487 8.52875 30.0862 9.54128C31.1626 10.0654 32.2469 10.9469 32.4494 12.2414C32.8704 16.5218 27.4212 16.9467 24.3708 16.4861C20.1369 15.9738 16.2088 13.6351 11.959 13.4683C7.79263 13.3016 3.45148 14.457 0.270081 17.2524L0 16.9626Z" fill="#32211E"/>
<path d="M103.992 20.7638C103.992 14.2399 109.159 8.84766 117.071 8.84766C119.462 8.84766 122.787 9.30032 124.467 10.428L124.598 14.6886L124.209 14.7839C122.886 11.4564 119.558 9.45518 116.229 9.45518C111.062 9.45518 107.412 12.8779 107.412 19.3026C107.412 25.7272 111.094 31.314 117.393 31.314C121.011 31.314 123.498 29.1182 124.661 25.7589L125.082 25.8225L124.566 30.4404C122.854 31.2147 120.4 31.989 116.46 31.989C108.738 31.989 103.992 27.9865 103.992 20.7519V20.7638Z" fill="#32211E"/>
<path d="M129.988 25.9652V20.1521C129.988 18.2461 129.504 17.9245 128.697 17.5671V17.1145L132.959 15.2403L133.281 15.4984V25.5403C133.281 28.9949 133.829 30.7062 136.315 30.7062C137.769 30.7062 139.35 29.8327 140.934 28.2523V20.1481C140.934 18.2422 140.45 17.9205 139.643 17.5632V17.1105L143.905 15.2363L144.227 15.4944V27.5694C144.227 29.8922 144.453 30.8651 145.518 31.2185V31.6711H142.225C141.387 31.6711 140.934 31.2185 140.934 30.3806V28.9274C139.091 30.7023 136.863 31.9967 134.83 31.9967C131.406 31.9967 129.984 29.8962 129.984 25.9573L129.988 25.9652Z" fill="#32211E"/>
<path d="M148.945 31.2263C150.01 30.8729 150.236 29.9041 150.236 27.5772V20.152C150.236 18.2461 149.752 17.9244 148.945 17.5671V17.1144L153.207 15.2402L153.529 15.4983V19.4055C154.013 18.2739 154.851 17.2732 155.888 16.5625C157.084 15.7247 158.311 15.3038 159.86 15.3038C160.96 15.3038 161.925 15.5936 161.925 16.2726C161.925 16.9516 161.214 18.3731 159.729 18.3731C158.823 18.3731 157.596 18.0515 155.531 17.4043C154.724 18.0833 153.624 19.5365 153.529 21.1487V27.5733C153.529 29.8961 153.755 30.869 154.82 31.2224V31.675H148.941V31.2224L148.945 31.2263Z" fill="#32211E"/>
<path d="M174.072 30.3874V25.0587C173.166 28.803 170.843 31.9995 167.483 31.9995C165.092 31.9995 163.09 30.4827 163.09 27.7707C163.09 24.4432 166.482 23.1527 170.485 22.025L174.072 20.9926C174.008 17.7962 172.265 16.5693 169.874 16.5693C168.066 16.5693 166.287 17.3436 164.643 19.313L164.321 19.0232C166.132 16.7956 168.619 15.3105 171.558 15.3105C175.466 15.3105 177.305 17.4111 177.305 21.35V27.5801C177.305 29.9029 177.531 30.8758 178.596 31.2291V31.6818H175.367C174.529 31.6818 174.076 31.2291 174.076 30.3913L174.072 30.3874ZM169.099 29.6448C172.265 29.6448 174.04 25.1897 174.072 22.2831V21.4453L170.616 22.4459C169.099 22.8668 166.093 23.9627 166.093 26.643C166.093 28.7752 167.61 29.6448 169.095 29.6448H169.099Z" fill="#32211E"/>
<path d="M183.501 27.1245V16.0502H181.436V15.534L186.281 11.2734H186.797V15.534H191.802L191.671 16.0502H186.793V27.1563C186.793 29.1575 187.536 30.0311 188.958 30.0311C189.669 30.0311 190.765 29.7412 191.834 28.415L192.155 28.7366C190.444 30.7061 188.795 31.9966 186.857 31.9966C184.661 31.9966 183.497 30.6069 183.497 27.1206L183.501 27.1245Z" fill="#32211E"/>
<path d="M194.447 24.2208C194.447 18.7333 198.741 15.3105 202.943 15.3105C207.145 15.3105 209.627 18.3124 209.627 21.1237H197.386C197.355 21.481 197.323 21.8027 197.323 22.1561C197.323 26.3849 199.908 29.3907 204.007 29.3907C206.398 29.3907 208.237 28.3583 209.596 26.8415L209.886 27.1631C208.4 29.4225 205.85 32.0074 202.101 32.0074C198.352 32.0074 194.447 29.4582 194.447 24.2248V24.2208ZM206.367 20.671C205.946 18.0225 204.17 15.926 201.942 15.8942C199.198 15.8625 197.807 18.1536 197.418 20.671H206.367Z" fill="#32211E"/>
<path d="M213.562 30.4191L213.24 26.1902L213.562 26.1267C214.952 29.2278 217.276 31.3879 220.151 31.4236C222.153 31.4554 223.444 30.1332 223.444 28.6481C223.444 26.5833 221.795 25.7733 218.987 24.9037C215.595 23.8713 213.498 22.9343 213.498 20.0277C213.498 17.5738 215.405 15.3145 219.798 15.3145C221.637 15.3145 223.611 15.6678 224.707 16.1205L224.87 19.6703L224.48 19.7339C223.38 17.4428 221.378 15.7631 219.023 15.7631C216.99 15.7631 215.663 16.8273 215.663 18.217C215.663 20.0237 217.28 20.802 220.183 21.7669C222.769 22.6404 225.608 23.4147 225.608 26.7064C225.608 29.1603 224.059 31.9359 219.377 31.9359C217.017 31.9359 214.789 31.2251 213.562 30.4191Z" fill="#32211E"/>
</g>
<defs>
<clipPath id="clip0_1801_1944">
<rect width="225.609" height="32" fill="white"/>
</clipPath>
</defs>
</svg>
