<svg width="69" height="67" viewBox="0 0 69 67" fill="none" xmlns="http://www.w3.org/2000/svg">
<path fill-rule="evenodd" clip-rule="evenodd" d="M41.3096 7.42911C53.8217 7.72665 64.6902 17.2781 68.18 30.81C71.37 43.1792 64.8507 55.2092 55.5768 62.7502C46.4003 70.2122 29.8047 65.707 20.354 58.6923C9.45729 50.6043 6.79235 43.4629 10.7031 29.4432C14.7136 15.0659 27.9283 7.11091 41.3096 7.42911Z" fill="#FBF2EB"/>
<path d="M48.1313 56.5594C47.8173 56.5736 47.5033 56.5879 47.1821 56.5879C35.8915 56.5879 29.2899 46.2252 29.2899 35.0488C29.2899 31.7516 29.8394 28.9111 30.8243 26.5131C35.0208 27.8049 39.1745 29.3893 43.4709 30.003C47.4533 30.4455 51.6284 30.7809 55.3325 28.6185C58.4013 26.8699 59.5504 22.3309 57.1167 19.5689C51.4214 13.6667 40.1594 15.144 33.5363 19.626C32.423 20.2755 31.381 21.0034 30.4318 21.817C30.5531 20.0685 30.5032 18.3057 30.3176 16.5643C29.6681 11.6256 28.2693 5.31655 24.1299 2.09782C20.6185 -0.735525 14.6378 0.0138474 12.7037 4.38876C10.6197 10.0055 14.6378 15.3867 18.5774 18.9908C20.9326 21.0248 23.8159 22.3666 26.635 23.6512C24.9078 23.2872 23.1593 23.0446 21.375 23.0089C13.6029 22.7876 5.60247 25.4782 0 30.9308L0.48531 31.4518C6.17343 26.4774 13.8956 24.4291 21.3322 24.6504C23.2663 24.7146 25.1719 25.0286 27.056 25.4711C24.551 28.9396 23.1664 33.1432 23.1664 37.6538C23.1664 50.6215 31.6736 57.8012 45.5121 57.8012C46.2829 57.8012 47.0037 57.7798 47.7102 57.7441C47.7602 57.7441 47.803 57.7369 47.8458 57.7369C48.0243 57.7298 48.2098 57.7227 48.3811 57.7155C48.3811 57.7155 48.3811 57.7084 48.3882 57.7013C52.9273 57.3159 56.8883 54.6395 60 51.4565V50.4431H59.9929C56.7813 53.6618 52.7632 56.3667 48.1385 56.5594H48.1313ZM54.1834 26.8699C51.2287 28.697 47.1393 28.49 43.6993 28.1474C39.5813 27.6407 35.606 26.1848 31.5594 24.9501C32.0447 24.0509 32.6014 23.2301 33.2295 22.4808C38.3966 17.2922 46.9466 16.6285 53.3912 19.6474C56.6028 21.032 57.2166 24.8431 54.1834 26.8699ZM17.7638 14.5089C15.6798 12.0109 13.5673 8.52101 14.7234 5.24518C16.0295 2.11923 20.4258 1.75525 22.9023 3.77498C27.7126 7.71454 28.8974 17.2209 28.4905 23.4014C26.7277 21.9383 24.8293 20.7179 23.0379 19.4476C21.0111 18.0844 19.2911 16.4144 17.7638 14.5089Z" fill="#32211E"/>
</svg>
