<svg width="73" height="86" viewBox="0 0 73 86" fill="none" xmlns="http://www.w3.org/2000/svg">
<g clip-path="url(#clip0_1664_4055)">
<path d="M66.264 85.8212H6.72684C5.85454 85.8212 5.15039 85.1132 5.15039 84.236V38.0129C5.15039 37.1358 5.85454 36.4277 6.72684 36.4277H66.264C67.1363 36.4277 67.8404 37.1358 67.8404 38.0129V84.236C67.8404 85.1132 67.1363 85.8212 66.264 85.8212ZM8.30328 82.6509H64.6875V39.598H8.30328V82.6509Z" fill="#64765B"/>
<path d="M71.4236 39.5867H1.57645C0.704146 39.5867 0 38.8786 0 38.0015V24.3586C0 23.4815 0.704146 22.7734 1.57645 22.7734H71.4236C72.2959 22.7734 73 23.4815 73 24.3586V38.0015C73 38.8786 72.2959 39.5867 71.4236 39.5867ZM3.15289 36.4163H69.8471V25.9437H3.15289V36.4163Z" fill="#64765B"/>
<path d="M45.0871 85.9997H27.9143C27.042 85.9997 26.3379 85.2917 26.3379 84.4145V38.0012C26.3379 37.1241 27.042 36.416 27.9143 36.416H45.0871C45.9594 36.416 46.6635 37.1241 46.6635 38.0012V84.4145C46.6635 85.2917 45.9594 85.9997 45.0871 85.9997ZM29.4908 82.8294H43.5107V39.5863H29.4908V82.8294Z" fill="#64765B"/>
<path d="M36.0579 24.8667C35.6691 24.8667 35.2802 24.7188 34.9859 24.444C34.534 24.0213 34.3659 23.3767 34.5551 22.7955C35.1961 20.7982 41.0815 3.17123 49.6679 0.370792C52.0956 -0.421786 54.5759 0.0431929 56.825 1.70232C59.4629 3.64678 59.8097 5.8343 59.6311 7.31378C58.6642 15.3875 38.906 23.81 36.657 24.7399C36.4678 24.8245 36.2576 24.8562 36.0579 24.8562V24.8667ZM51.9906 3.17123C51.5386 3.17123 51.0867 3.24521 50.6348 3.39316C45.7373 4.98888 41.1656 14.2779 38.7904 20.3438C46.431 16.7719 56.0052 11.023 56.4992 6.94391C56.5728 6.33098 56.4992 5.40102 54.9648 4.27028C53.9664 3.5411 52.989 3.17123 52.0011 3.17123H51.9906Z" fill="#64765B"/>
<path d="M36.9406 24.8656C36.7409 24.8656 36.5307 24.8233 36.3415 24.7494C34.0925 23.8194 14.3448 15.397 13.3674 7.32322C13.1888 5.83318 13.5356 3.65623 16.1735 1.71177C18.4331 0.0420727 20.9028 -0.412339 23.3306 0.369672C31.917 3.15955 37.8024 20.7971 38.4434 22.7943C38.6326 23.3861 38.4645 24.0308 38.0125 24.4429C37.7183 24.7177 37.3294 24.8656 36.9406 24.8656ZM21.0079 3.17011C20.02 3.17011 19.0321 3.52942 18.0442 4.26916C16.5098 5.3999 16.4362 6.34043 16.5098 6.94279C17.0038 11.0219 26.5675 16.7708 34.2186 20.3426C31.8434 14.2768 27.2717 4.98776 22.3742 3.39204C21.9223 3.24409 21.4704 3.17011 21.0185 3.17011H21.0079Z" fill="#64765B"/>
</g>
<defs>
<clipPath id="clip0_1664_4055">
<rect width="73" height="86" fill="white"/>
</clipPath>
</defs>
</svg>
