<svg width="24" height="24" viewBox="0 0 24 24" fill="none" xmlns="http://www.w3.org/2000/svg">
    <g clip-path="url(#clip0_1805_4942)">
        <path d="M13.3027 8.25415L16.4727 11.4142C16.4727 11.3642 16.4727 11.3042 16.4727 11.2542C16.4727 10.4585 16.1566 9.69544 15.594 9.13283C15.0314 8.57022 14.2683 8.25415 13.4727 8.25415C13.4127 8.25415 13.3627 8.25415 13.3027 8.25415ZM9.00266 9.05415L10.5527 10.6042C10.5027 10.8142 10.4727 11.0242 10.4727 11.2542C10.4727 12.0498 10.7887 12.8129 11.3513 13.3755C11.9139 13.9381 12.677 14.2542 13.4727 14.2542C13.6927 14.2542 13.9127 14.2242 14.1227 14.1742L15.6727 15.7241C15.0027 16.0541 14.2627 16.2542 13.4727 16.2542C12.1466 16.2542 10.8748 15.7274 9.93712 14.7897C8.99944 13.852 8.47266 12.5802 8.47266 11.2542C8.47266 10.4642 8.67266 9.72415 9.00266 9.05415ZM3.47266 3.52415L5.75266 5.80415L6.20266 6.25415C4.55266 7.55415 3.25266 9.25415 2.47266 11.2542C4.20266 15.6441 8.47266 18.7542 13.4727 18.7542C15.0227 18.7542 16.5027 18.4542 17.8527 17.9142L18.2827 18.3342L21.2027 21.2542L22.4727 19.9841L4.74266 2.25415M13.4727 6.25415C14.7987 6.25415 16.0705 6.78093 17.0082 7.71862C17.9459 8.6563 18.4727 9.92807 18.4727 11.2542C18.4727 11.8942 18.3427 12.5141 18.1127 13.0742L21.0427 16.0042C22.5427 14.7542 23.7427 13.1142 24.4727 11.2542C22.7427 6.86415 18.4727 3.75415 13.4727 3.75415C12.0727 3.75415 10.7327 4.00415 9.47266 4.45415L11.6427 6.60415C12.2127 6.38415 12.8227 6.25415 13.4727 6.25415Z" fill="#BC2C36"/>
    </g>
    <defs>
        <clipPath id="clip0_1805_4942">
            <rect width="24" height="24" fill="white"/>
        </clipPath>
    </defs>
</svg>
