<svg width="36" height="36" viewBox="0 0 36 36" fill="none" xmlns="http://www.w3.org/2000/svg">
    <g id="google">
        <path id="Vector" d="M32.0269 16.65H18.2719V20.745H28.0369C27.5419 26.46 22.7869 28.905 18.2869 28.905C12.5419 28.905 7.50187 24.375 7.50187 18C7.50187 11.85 12.3019 7.095 18.3019 7.095C22.9369 7.095 25.6519 10.05 25.6519 10.05L28.5019 7.08C28.5019 7.08 24.8419 3 18.1519 3C9.63188 3 3.04688 10.2 3.04688 18C3.04688 25.575 9.24188 33 18.3769 33C26.4019 33 32.2519 27.495 32.2519 19.365C32.2519 17.64 32.0269 16.65 32.0269 16.65Z" fill="#32211E"/>
    </g>
</svg>
