<svg width="1511" height="353" viewBox="0 0 1511 353" fill="none" xmlns="http://www.w3.org/2000/svg">
<g clip-path="url(#clip0_2085_1843)">
<rect width="1511" height="353" fill="#F9DCD7"/>
<path d="M660.408 154.5H642.192V153.996C643.38 153.6 643.632 152.52 643.632 149.928V133.872C643.632 131.28 643.38 130.2 642.192 129.804V129.3H659.472L659.868 134.376L659.4 134.484C657.96 130.956 655.692 129.876 651.66 129.876H647.448V140.676H650.904C655.296 140.676 656.556 139.812 657.132 137.94H657.636V143.988H657.132C656.556 142.116 655.296 141.252 650.904 141.252H647.448V152.124C647.448 153.276 648.096 153.924 649.248 153.924H652.704C656.34 153.924 658.824 152.844 660.192 149.172L660.66 149.244L660.408 154.5ZM669.866 154.788C667.238 154.788 664.754 153.996 663.386 153.096L663.026 148.38L663.386 148.308C664.934 151.764 667.526 154.176 670.73 154.212C672.962 154.248 674.402 152.772 674.402 151.116C674.402 148.812 672.566 147.912 669.434 146.94C665.654 145.788 663.314 144.744 663.314 141.504C663.314 138.768 665.438 136.248 670.334 136.248C672.386 136.248 674.582 136.644 675.806 137.148L675.986 141.108L675.554 141.18C674.33 138.624 672.098 136.752 669.47 136.752C667.202 136.752 665.726 137.94 665.726 139.488C665.726 141.504 667.526 142.368 670.766 143.448C673.646 144.42 676.814 145.284 676.814 148.956C676.814 151.692 675.086 154.788 669.866 154.788ZM686.003 154.788C683.375 154.788 680.891 153.996 679.523 153.096L679.163 148.38L679.523 148.308C681.071 151.764 683.663 154.176 686.867 154.212C689.099 154.248 690.539 152.772 690.539 151.116C690.539 148.812 688.703 147.912 685.571 146.94C681.791 145.788 679.451 144.744 679.451 141.504C679.451 138.768 681.575 136.248 686.471 136.248C688.523 136.248 690.719 136.644 691.943 137.148L692.123 141.108L691.691 141.18C690.467 138.624 688.235 136.752 685.607 136.752C683.339 136.752 681.863 137.94 681.863 139.488C681.863 141.504 683.663 142.368 686.903 143.448C689.783 144.42 692.951 145.284 692.951 148.956C692.951 151.692 691.223 154.788 686.003 154.788ZM703.832 154.86C699.836 154.86 695.3 152.016 695.3 146.184C695.3 140.064 700.088 136.248 704.768 136.248C709.628 136.248 712.22 139.596 712.22 142.728H698.576C698.54 143.124 698.504 143.484 698.504 143.88C698.504 148.596 701.384 151.944 705.956 151.944C708.62 151.944 710.672 150.792 712.184 149.1L712.508 149.46C710.852 151.98 708.008 154.86 703.832 154.86ZM698.612 142.224H708.584C708.116 139.272 706.136 136.932 703.652 136.896C700.592 136.86 699.044 139.416 698.612 142.224ZM714.422 154.5V153.996C715.61 153.6 715.862 152.52 715.862 149.928V141.648C715.862 139.524 715.322 139.164 714.422 138.768V138.264L719.174 136.176L719.534 136.464V139.488C721.514 137.868 724.106 136.248 726.914 136.248C730.226 136.248 732.458 137.976 732.458 142.188V149.928C732.458 152.52 732.71 153.6 733.898 153.996V154.5H727.346V153.996C728.534 153.6 728.786 152.52 728.786 149.928V142.836C728.786 139.596 727.382 137.688 724.718 137.688C723.026 137.688 721.478 138.516 719.534 140.1V149.928C719.534 152.52 719.786 153.6 720.974 153.996V154.5H714.422ZM741.381 154.86C738.933 154.86 737.637 153.312 737.637 149.424V137.076H735.333V136.5L740.733 131.748H741.309V136.5H746.889L746.745 137.076H741.309V149.46C741.309 151.692 742.137 152.664 743.721 152.664C744.513 152.664 745.737 152.34 746.925 150.864L747.285 151.224C745.377 153.42 743.541 154.86 741.381 154.86ZM748.453 154.5V153.996C749.641 153.6 749.893 152.52 749.893 149.928V141.648C749.893 139.524 749.353 139.164 748.453 138.768V138.264L753.205 136.176L753.565 136.464V149.928C753.565 152.52 753.817 153.6 755.005 153.996V154.5H748.453ZM751.513 134.952C750.145 134.952 749.065 133.872 749.065 132.504C749.065 131.1 750.145 130.02 751.513 130.02C752.953 130.02 753.961 131.1 753.961 132.504C753.961 133.872 752.881 134.952 751.513 134.952ZM770.854 154.5C769.918 154.5 769.414 153.996 769.414 153.06V147.12C768.406 151.296 765.814 154.86 762.07 154.86C759.406 154.86 757.174 153.168 757.174 150.144C757.174 146.436 760.954 144.996 765.418 143.736L769.414 142.584C769.342 139.02 767.398 137.652 764.734 137.652C762.718 137.652 760.738 138.516 758.902 140.712L758.542 140.388C760.558 137.904 763.33 136.248 766.606 136.248C770.962 136.248 773.014 138.588 773.014 142.98V149.928C773.014 152.52 773.266 153.6 774.454 153.996V154.5H770.854ZM760.522 148.884C760.522 151.26 762.214 152.232 763.87 152.232C767.398 152.232 769.378 147.264 769.414 144.024V143.088L765.562 144.204C763.87 144.672 760.522 145.896 760.522 148.884ZM776.264 154.5V153.996C777.452 153.6 777.704 152.52 777.704 149.928V130.848C777.704 128.724 777.164 128.364 776.264 127.968V127.464L781.016 125.376L781.376 125.664V149.928C781.376 152.52 781.628 153.6 782.816 153.996V154.5H776.264ZM806.766 154.86C798.486 154.86 793.194 149.676 793.194 141.792C793.194 134.88 798.63 129.048 806.73 129.048C808.962 129.048 812.67 129.552 814.542 130.812L814.686 135.564L814.254 135.672C812.778 131.964 808.998 129.732 805.398 129.732C800.682 129.732 797.046 132.9 796.974 139.416C796.902 146.22 801.042 153.996 807.954 153.996C810.222 153.996 812.274 153.06 813.174 151.26V147.984C813.174 145.176 812.85 144.168 811.302 143.736V143.232H816.882V149.856C814.182 153.384 809.754 154.86 806.766 154.86ZM819.399 154.5V153.996C820.587 153.6 820.839 152.52 820.839 149.928V141.648C820.839 139.524 820.299 139.164 819.399 138.768V138.264L824.151 136.176L824.511 136.464V149.928C824.511 152.52 824.763 153.6 825.951 153.996V154.5H819.399ZM822.459 134.952C821.091 134.952 820.011 133.872 820.011 132.504C820.011 131.1 821.091 130.02 822.459 130.02C823.899 130.02 824.907 131.1 824.907 132.504C824.907 133.872 823.827 134.952 822.459 134.952ZM828.299 154.5V153.996C829.487 153.6 829.739 152.52 829.739 149.928V137.544H827.651L827.831 136.968H829.739C829.991 131.676 835.499 126.384 841.547 126.384C843.059 126.384 844.103 126.672 844.103 127.392C844.103 128.148 843.023 129.804 841.403 129.804C839.567 129.804 837.983 129.336 835.751 128.472C834.743 129.012 833.411 129.984 833.411 133.692V136.968H837.911L837.731 137.544H833.411V149.928C833.411 152.52 833.663 153.6 834.851 153.996V154.5H828.299ZM845.163 154.86C842.715 154.86 841.419 153.312 841.419 149.424V137.076H839.115V136.5L844.515 131.748H845.091V136.5H850.671L850.527 137.076H845.091V149.46C845.091 151.692 845.919 152.664 847.503 152.664C848.295 152.664 849.519 152.34 850.707 150.864L851.067 151.224C849.159 153.42 847.323 154.86 845.163 154.86ZM859.183 154.788C856.555 154.788 854.071 153.996 852.703 153.096L852.343 148.38L852.703 148.308C854.251 151.764 856.843 154.176 860.047 154.212C862.279 154.248 863.719 152.772 863.719 151.116C863.719 148.812 861.883 147.912 858.751 146.94C854.971 145.788 852.631 144.744 852.631 141.504C852.631 138.768 854.755 136.248 859.651 136.248C861.703 136.248 863.899 136.644 865.123 137.148L865.303 141.108L864.871 141.18C863.647 138.624 861.415 136.752 858.787 136.752C856.519 136.752 855.043 137.94 855.043 139.488C855.043 141.504 856.843 142.368 860.083 143.448C862.963 144.42 866.131 145.284 866.131 148.956C866.131 151.692 864.403 154.788 859.183 154.788Z" fill="#32211E"/>
<path d="M633.628 227.5V227.164C634.42 226.9 634.588 226.18 634.588 224.452V213.748C634.588 212.02 634.42 211.3 633.628 211.036V210.7H638.092V211.036C637.3 211.3 637.132 212.02 637.132 213.748V218.38H645.484V213.748C645.484 212.02 645.316 211.3 644.524 211.036V210.7H648.988V211.036C648.196 211.3 648.028 212.02 648.028 213.748V224.452C648.028 226.18 648.196 226.9 648.988 227.164V227.5H644.524V227.164C645.316 226.9 645.484 226.18 645.484 224.452V218.812H637.132V224.452C637.132 226.18 637.3 226.9 638.092 227.164V227.5H633.628ZM659.965 227.5C659.341 227.5 659.005 227.164 659.005 226.54V222.58C658.333 225.364 656.605 227.74 654.109 227.74C652.333 227.74 650.845 226.612 650.845 224.596C650.845 222.124 653.365 221.164 656.341 220.324L659.005 219.556C658.957 217.18 657.661 216.268 655.885 216.268C654.541 216.268 653.221 216.844 651.997 218.308L651.757 218.092C653.101 216.436 654.949 215.332 657.133 215.332C660.037 215.332 661.405 216.892 661.405 219.82V224.452C661.405 226.18 661.573 226.9 662.365 227.164V227.5H659.965ZM653.077 223.756C653.077 225.34 654.205 225.988 655.309 225.988C657.661 225.988 658.981 222.676 659.005 220.516V219.892L656.437 220.636C655.309 220.948 653.077 221.764 653.077 223.756ZM663.524 227.5V227.164C664.316 226.9 664.484 226.18 664.484 224.452V218.932C664.484 217.516 664.124 217.276 663.524 217.012V216.676L666.692 215.284L666.932 215.476V217.492C668.252 216.412 669.98 215.332 671.852 215.332C674.06 215.332 675.548 216.484 675.548 219.292V224.452C675.548 226.18 675.716 226.9 676.508 227.164V227.5H672.14V227.164C672.932 226.9 673.1 226.18 673.1 224.452V219.724C673.1 217.564 672.164 216.292 670.388 216.292C669.26 216.292 668.228 216.844 666.932 217.9V224.452C666.932 226.18 667.1 226.9 667.892 227.164V227.5H663.524ZM682.84 227.788C679.792 227.74 677.728 224.932 677.728 221.956C677.728 218.284 680.248 215.356 684.424 215.356C685.432 215.356 686.272 215.596 686.992 215.956V211.732C686.992 210.316 686.632 210.076 686.032 209.812V209.476L689.2 208.084L689.44 208.276V224.452C689.44 226.18 689.608 226.9 690.4 227.164V227.5H687.952C687.328 227.5 686.992 227.164 686.992 226.54V225.532C686.08 226.588 684.64 227.836 682.84 227.788ZM680.08 220.012C680.08 222.292 680.872 226.348 684.328 226.348C685.384 226.348 686.296 225.772 686.992 225.028V219.724C686.992 217.948 685.432 215.86 683.416 215.86C680.776 215.86 680.08 218.116 680.08 220.012ZM698.036 227.716C696.932 227.716 695.924 227.404 695.084 226.924V230.932C695.084 232.66 695.252 233.38 696.044 233.644V233.98H691.676V233.644C692.468 233.38 692.636 232.66 692.636 230.932V218.932C692.636 217.516 692.276 217.276 691.676 217.012V216.676L694.844 215.284L695.084 215.476V217.036C696.356 216.148 697.916 215.332 699.572 215.332C702.548 215.332 704.444 217.828 704.444 221.116C704.444 224.788 701.972 227.716 698.036 227.716ZM695.084 223.492C695.084 225.148 697.22 227.26 698.996 227.26C701.588 227.26 702.188 225.124 702.188 222.94C702.188 220.78 701.468 216.316 697.892 216.316C696.836 216.316 695.924 216.796 695.084 217.444V223.492ZM706.11 227.5V227.164C706.902 226.9 707.07 226.18 707.07 224.452V218.932C707.07 217.516 706.71 217.276 706.11 217.012V216.676L709.278 215.284L709.518 215.476V224.452C709.518 226.18 709.686 226.9 710.478 227.164V227.5H706.11ZM708.15 214.468C707.238 214.468 706.518 213.748 706.518 212.836C706.518 211.9 707.238 211.18 708.15 211.18C709.11 211.18 709.782 211.9 709.782 212.836C709.782 213.748 709.062 214.468 708.15 214.468ZM717.635 227.74C714.683 227.74 711.947 225.676 711.947 221.956C711.947 217.924 715.067 215.332 718.427 215.332C720.995 215.332 722.747 216.028 722.747 216.7C722.747 217.444 721.835 218.26 721.115 218.26C720.443 218.26 719.363 217.516 717.515 215.74C715.427 216.052 714.083 218.116 714.083 220.42C714.083 223.564 716.003 225.796 719.051 225.796C720.827 225.796 722.195 225.028 723.203 223.9L723.419 224.14C722.315 225.82 720.419 227.74 717.635 227.74ZM724.134 227.5V227.164C724.926 226.9 725.094 226.18 725.094 224.452V211.732C725.094 210.316 724.734 210.076 724.134 209.812V209.476L727.302 208.084L727.542 208.276V222.076L731.31 218.332C732.846 216.796 732.822 215.884 732.342 215.716V215.5H735.39V215.836C734.622 216.076 733.686 216.436 732.462 217.66L730.926 219.196L733.782 224.356C734.718 226.036 735.462 227.164 736.614 227.164V227.5H734.694C733.518 227.5 732.414 226.78 731.262 224.62L729.27 220.828L727.542 222.556V224.452C727.542 226.18 727.71 226.9 728.502 227.164V227.5H724.134ZM741.846 227.74C739.182 227.74 736.158 225.844 736.158 221.956C736.158 217.876 739.35 215.332 742.47 215.332C745.71 215.332 747.438 217.564 747.438 219.652H738.342C738.318 219.916 738.294 220.156 738.294 220.42C738.294 223.564 740.214 225.796 743.262 225.796C745.038 225.796 746.406 225.028 747.414 223.9L747.63 224.14C746.526 225.82 744.63 227.74 741.846 227.74ZM738.366 219.316H745.014C744.702 217.348 743.382 215.788 741.726 215.764C739.686 215.74 738.654 217.444 738.366 219.316ZM754.09 227.788C751.042 227.74 748.978 224.932 748.978 221.956C748.978 218.284 751.498 215.356 755.674 215.356C756.682 215.356 757.522 215.596 758.242 215.956V211.732C758.242 210.316 757.882 210.076 757.282 209.812V209.476L760.45 208.084L760.69 208.276V224.452C760.69 226.18 760.858 226.9 761.65 227.164V227.5H759.202C758.578 227.5 758.242 227.164 758.242 226.54V225.532C757.33 226.588 755.89 227.836 754.09 227.788ZM751.33 220.012C751.33 222.292 752.122 226.348 755.578 226.348C756.634 226.348 757.546 225.772 758.242 225.028V219.724C758.242 217.948 756.682 215.86 754.666 215.86C752.026 215.86 751.33 218.116 751.33 220.012ZM773.851 227.716C772.123 227.716 770.587 226.948 769.699 225.94L768.715 227.5H768.451V211.732C768.451 210.316 768.091 210.076 767.491 209.812V209.476L770.659 208.084L770.899 208.276V216.748C772.099 215.98 773.515 215.332 774.883 215.332C778.291 215.332 780.355 218.14 780.355 221.116C780.355 224.788 777.835 227.716 773.851 227.716ZM770.899 223.276C770.899 225.148 772.963 227.212 774.787 227.212C777.331 227.212 778.003 225.124 778.003 222.94C778.003 220.78 776.995 216.292 773.419 216.292C772.531 216.292 771.691 216.628 770.899 217.132V223.276ZM781.583 232.132C780.599 232.156 779.831 231.844 779.831 231.364C779.831 230.908 780.479 229.852 781.607 229.852C782.303 229.852 783.623 230.068 784.871 230.284C785.447 229.66 786.023 228.724 786.551 227.62L782.519 218.308C781.847 216.7 781.199 216.1 780.647 215.836V215.5H784.895V215.836C784.103 216.1 784.463 216.7 785.159 218.284L787.895 224.524L790.583 218.308C791.255 216.7 791.135 216.028 790.319 215.836V215.5H793.055V215.836C792.335 216.1 791.663 216.7 790.967 218.284L787.295 226.78C785.471 230.98 783.791 232.084 781.583 232.132ZM808.201 227.74C802.465 227.74 798.937 224.764 798.937 219.388C798.937 214.54 802.777 210.532 808.657 210.532C810.433 210.532 812.905 210.868 814.153 211.708L814.249 214.876L813.961 214.948C812.977 212.476 810.505 210.988 808.033 210.988C804.193 210.988 801.481 213.532 801.481 218.308C801.481 222.94 804.217 227.236 808.897 227.236C811.585 227.236 813.433 225.604 814.297 223.108L814.609 223.156L814.225 226.588C812.953 227.164 811.129 227.74 808.201 227.74ZM825.504 227.5C824.88 227.5 824.544 227.164 824.544 226.54V222.58C823.872 225.364 822.144 227.74 819.648 227.74C817.872 227.74 816.384 226.612 816.384 224.596C816.384 222.124 818.904 221.164 821.88 220.324L824.544 219.556C824.496 217.18 823.2 216.268 821.424 216.268C820.08 216.268 818.76 216.844 817.536 218.308L817.296 218.092C818.64 216.436 820.488 215.332 822.672 215.332C825.576 215.332 826.944 216.892 826.944 219.82V224.452C826.944 226.18 827.112 226.9 827.904 227.164V227.5H825.504ZM818.616 223.756C818.616 225.34 819.744 225.988 820.848 225.988C823.2 225.988 824.52 222.676 824.544 220.516V219.892L821.976 220.636C820.848 220.948 818.616 221.764 818.616 223.756ZM829.063 227.5V227.164C829.855 226.9 830.023 226.18 830.023 224.452V218.932C830.023 217.516 829.663 217.276 829.063 217.012V216.676L832.231 215.284L832.471 215.476V224.452C832.471 226.18 832.639 226.9 833.431 227.164V227.5H829.063ZM831.103 214.468C830.191 214.468 829.471 213.748 829.471 212.836C829.471 211.9 830.191 211.18 831.103 211.18C832.063 211.18 832.735 211.9 832.735 212.836C832.735 213.748 832.015 214.468 831.103 214.468ZM838.668 227.74C837.036 227.74 836.172 226.708 836.172 224.116V215.884H834.636V215.5L838.236 212.332H838.62V215.5H842.34L842.244 215.884H838.62V224.14C838.62 225.628 839.172 226.276 840.228 226.276C840.756 226.276 841.572 226.06 842.364 225.076L842.604 225.316C841.332 226.78 840.108 227.74 838.668 227.74ZM843.431 227.5V227.164C844.223 226.9 844.391 226.18 844.391 224.452V211.732C844.391 210.316 844.031 210.076 843.431 209.812V209.476L846.599 208.084L846.839 208.276V224.452C846.839 226.18 847.007 226.9 847.799 227.164V227.5H843.431ZM849.247 232.132C848.263 232.156 847.495 231.844 847.495 231.364C847.495 230.908 848.143 229.852 849.271 229.852C849.967 229.852 851.287 230.068 852.535 230.284C853.111 229.66 853.687 228.724 854.215 227.62L850.183 218.308C849.511 216.7 848.863 216.1 848.311 215.836V215.5H852.559V215.836C851.767 216.1 852.127 216.7 852.823 218.284L855.559 224.524L858.247 218.308C858.919 216.7 858.799 216.028 857.983 215.836V215.5H860.719V215.836C859.999 216.1 859.327 216.7 858.631 218.284L854.959 226.78C853.135 230.98 851.455 232.084 849.247 232.132ZM861.172 227.5V227.164C861.964 226.9 862.132 226.18 862.132 224.452V218.932C862.132 217.516 861.772 217.276 861.172 217.012V216.676L864.34 215.284L864.58 215.476V217.492C865.9 216.412 867.628 215.332 869.5 215.332C871.708 215.332 873.196 216.484 873.196 219.292V224.452C873.196 226.18 873.364 226.9 874.156 227.164V227.5H869.788V227.164C870.58 226.9 870.748 226.18 870.748 224.452V219.724C870.748 217.564 869.812 216.292 868.036 216.292C866.908 216.292 865.876 216.844 864.58 217.9V224.452C864.58 226.18 864.748 226.9 865.54 227.164V227.5H861.172Z" fill="#32211E"/>
<path d="M358.719 83.3594C348.364 86.0036 331.974 83.7848 329.629 83.447C328.858 83.3409 328.221 82.7874 328.001 82.0313C327.78 81.2751 328.003 80.4746 328.602 79.9635C330.59 78.2028 348.38 62.8774 359.545 65.3975C362.701 66.1066 365.112 68.2175 366.498 71.4856C368.135 75.3091 367.103 77.9 365.942 79.3945C364.473 81.2983 361.887 82.5507 358.732 83.3561L358.719 83.3594ZM334.79 80.0361C345.446 81.1024 359.594 81.0703 362.755 76.9444C363.231 76.3272 363.743 75.2599 362.79 73.0381C361.9 70.952 360.537 69.7161 358.639 69.292C352.266 67.8482 341.295 74.9873 334.787 80.0231L334.79 80.0361Z" fill="#DFB2AA"/>
<path d="M331.376 83.9784C331.376 83.9784 331.324 83.9916 331.299 83.9982C330.542 84.1638 329.751 83.87 329.275 83.2478C326.874 80.0463 319.211 69.1819 321.573 63.8141C322.088 62.6497 323.272 61.1907 325.973 60.928C328.217 60.7128 330.121 61.425 331.494 62.9747C335.937 68.0236 333.154 81.018 332.825 82.4792C332.654 83.2115 332.1 83.7935 331.376 83.9784ZM325.88 64.9866C325.375 65.1154 325.276 65.3198 325.244 65.4105C324.505 67.1003 326.701 72.0343 329.725 76.8119C330.231 72.4276 330.174 67.512 328.504 65.611C328.156 65.218 327.604 64.7806 326.381 64.9C326.18 64.9237 326.022 64.9503 325.893 64.9833L325.88 64.9866Z" fill="#DFB2AA"/>
<path d="M298.426 138.415L225.187 157.116C224.114 157.39 223.026 156.745 222.752 155.671L204.052 82.4324C203.778 81.3594 204.423 80.272 205.496 79.998L278.735 61.2976C279.808 61.0237 280.895 61.6687 281.169 62.7417L299.87 135.981C300.144 137.054 299.499 138.141 298.426 138.415ZM226.136 152.742L295.496 135.032L277.786 65.6713L208.425 83.3814L226.136 152.742Z" fill="#DFB2AA"/>
<path d="M359.176 122.904C358.685 123.029 358.131 122.964 357.66 122.685L281.399 77.446C280.441 76.878 280.127 75.6498 280.699 74.7052L289.489 59.8877C290.057 58.9302 291.285 58.6166 292.229 59.1879L368.491 104.427C369.449 104.995 369.762 106.223 369.191 107.167L360.401 121.985C360.122 122.456 359.667 122.778 359.176 122.904ZM285.16 75.0258L357.981 118.224L364.72 106.863L291.899 63.6653L285.16 75.0258Z" fill="#DFB2AA"/>
<path d="M272.375 145.067L251.25 150.461C250.177 150.735 249.09 150.09 248.816 149.017L230.06 75.5579C229.786 74.4849 230.431 73.3975 231.504 73.1235L252.629 67.7296C253.702 67.4556 254.789 68.1006 255.063 69.1737L273.82 142.633C274.093 143.706 273.448 144.793 272.375 145.067ZM252.199 146.087L269.446 141.684L251.68 72.1033L234.433 76.5068L252.199 146.087Z" fill="#DFB2AA"/>
<path d="M276.54 18.465L275.159 17.9088C273.716 17.3271 260.987 12.0803 259.248 5.37705C258.73 3.3473 259.186 1.35797 260.601 -0.380503C261.795 -1.85573 263.376 -2.67272 265.166 -2.73023C267.566 -2.81993 269.909 -1.51777 271.586 -0.293176C272.491 -2.30094 274.048 -4.77798 276.515 -5.90361C277.923 -6.5385 280.193 -6.98029 283.08 -5.48669C284.573 -4.71101 285.554 -3.40525 285.912 -1.73392C287.277 4.69284 278.48 16.0281 277.483 17.3017L276.557 18.4746L276.54 18.465ZM264.878 1.32296C264.439 1.4352 264.065 1.69597 263.711 2.14434C262.923 3.10298 262.988 3.84375 263.124 4.37381C263.972 7.64138 270.509 11.5083 275.247 13.6172C278.526 9.19947 282.663 2.26292 281.98 -0.895448C281.878 -1.40625 281.65 -1.70608 281.208 -1.92393C280.03 -2.54585 279.04 -2.65092 278.165 -2.24847C276.053 -1.29615 274.729 2.41597 274.434 3.63426L273.558 7.21791L271.027 4.53159C270.201 3.66843 267.383 1.20685 265.309 1.28197C265.16 1.29242 265.011 1.30288 264.869 1.33919L264.878 1.32296Z" fill="#DFB2AA"/>
<path d="M243.606 60.6684L242.225 60.1123C241.135 59.6744 215.491 49.3111 212.283 36.9098C211.402 33.5129 212.176 30.2858 214.575 27.332C216.589 24.8624 219.119 23.5552 222.077 23.4336C227.221 23.2492 232.421 26.893 235.359 29.3929C236.757 25.593 239.733 19.4487 244.951 17.0698C248.367 15.509 252.113 15.7782 256.097 17.8456C258.495 19.0925 260.075 21.1816 260.651 23.8713C263.144 35.5739 246.449 57.0782 244.532 59.4955L243.606 60.6684ZM220.968 27.6139C219.727 27.9308 218.637 28.6773 217.672 29.8602C216.099 31.7904 215.601 33.7767 216.155 35.8936C218.264 44.0448 234.627 52.5226 242.326 55.8173C247.657 48.81 258.426 32.5782 256.746 24.7031C256.418 23.1482 255.626 22.0971 254.26 21.3855C251.398 19.8853 248.906 19.6681 246.636 20.7021C240.775 23.369 238.291 33.3814 238.276 33.4818L237.417 37.075L234.886 34.3887C232.999 32.3917 227.047 27.2598 222.246 27.4392C221.809 27.4543 221.398 27.5179 220.997 27.6202L220.968 27.6139Z" fill="#DFB2AA"/>
<g clip-path="url(#clip1_2085_1843)">
<path d="M62.9354 282.775L-11.4641 260.361C-12.5542 260.032 -13.1669 258.88 -12.8358 257.781L23.308 137.808C23.639 136.709 24.7862 136.087 25.8762 136.415L100.276 158.829C101.366 159.158 101.979 160.31 101.647 161.409L65.5037 281.382C65.1726 282.481 64.0255 283.103 62.9354 282.775ZM-8.29761 256.982L62.162 278.209L97.1093 162.208L26.6497 140.981L-8.29761 256.982Z" fill="#DFB2AA"/>
<path d="M105.515 164.74L18.2317 138.445C17.1416 138.116 16.5289 136.964 16.86 135.865L22.0091 118.773C22.3402 117.675 23.4873 117.053 24.5774 117.381L111.861 143.676C112.951 144.005 113.563 145.157 113.232 146.256L108.083 163.348C107.752 164.446 106.605 165.068 105.515 164.74ZM21.3982 135.066L104.742 160.175L108.694 147.055L25.3508 121.946L21.3982 135.066Z" fill="#DFB2AA"/>
<path d="M36.3188 275.262L14.8592 268.797C13.7691 268.468 13.1564 267.316 13.4875 266.217L49.7709 145.78C50.1019 144.681 51.2491 144.06 52.3391 144.388L73.7988 150.853C74.8888 151.181 75.5015 152.333 75.1705 153.432L38.8871 273.869C38.556 274.968 37.4089 275.59 36.3188 275.262ZM18.0257 265.418L35.5454 270.696L70.6322 154.231L53.1125 148.953L18.0257 265.418Z" fill="#DFB2AA"/>
<path d="M66.8772 132.984C66.3913 132.838 65.9612 132.506 65.6972 132.051C65.292 131.351 65.3251 130.48 65.7809 129.823C67.3358 127.562 81.3433 107.695 93.13 107.419C96.463 107.34 99.3738 108.853 101.571 111.782C104.134 115.211 103.742 118.082 102.96 119.868C98.7044 129.619 70.8351 132.732 67.6736 133.051C67.4053 133.085 67.1307 133.046 66.8812 132.971L66.8772 132.984ZM94.9795 111.789C94.4148 111.619 93.8221 111.541 93.2016 111.556C86.4792 111.712 77.2604 121.628 72.0029 128.333C82.9028 126.721 97.0329 123.137 99.1898 118.213C99.513 117.472 99.7721 116.28 98.2814 114.285C97.309 112.996 96.2272 112.165 94.9926 111.793L94.9795 111.789Z" fill="#DFB2AA"/>
<path d="M67.9808 133.316C67.7313 133.241 67.4845 133.109 67.2761 132.945C64.8165 130.933 43.3181 112.947 45.1439 102.465C45.483 100.531 46.7381 97.9339 50.7684 96.491C54.2182 95.2631 57.48 95.6104 60.2147 97.5173C69.8875 104.258 70.5762 128.553 70.6366 131.3C70.6496 132.113 70.1962 132.857 69.4759 133.203C69.0045 133.437 68.4627 133.476 67.9768 133.329L67.9808 133.316ZM56.2632 100.125C55.0287 99.7529 53.6586 99.8311 52.1449 100.386C49.8007 101.225 49.3537 102.375 49.2183 103.158C48.296 108.454 58.0775 119.257 66.2904 126.612C65.6117 118.118 63.4046 104.76 57.8868 100.917C57.3779 100.562 56.8411 100.299 56.2764 100.129L56.2632 100.125Z" fill="#DFB2AA"/>
<path d="M157.055 308.819L82.6558 286.405C81.5657 286.077 80.953 284.925 81.284 283.826L98.7338 225.904C99.0648 224.805 100.212 224.184 101.302 224.512L175.702 246.926C176.792 247.254 177.404 248.406 177.073 249.505L159.624 307.427C159.293 308.526 158.145 309.148 157.055 308.819ZM85.8223 283.027L156.282 304.254L172.535 250.304L102.075 229.077L85.8223 283.027Z" fill="#DFB2AA"/>
<path d="M180.954 252.841L93.6711 226.545C92.5811 226.217 91.9684 225.065 92.2994 223.966L97.4486 206.874C97.7796 205.775 98.9268 205.153 100.017 205.482L187.3 231.777C188.39 232.105 189.003 233.258 188.672 234.356L183.523 251.448C183.192 252.547 182.044 253.169 180.954 252.841ZM96.8377 223.167L180.181 248.275L184.134 235.155L100.79 210.047L96.8377 223.167Z" fill="#DFB2AA"/>
<path d="M130.524 301.072L109.065 294.607C107.974 294.278 107.362 293.126 107.693 292.027L125.21 233.881C125.541 232.782 126.689 232.16 127.779 232.489L149.238 238.954C150.328 239.282 150.941 240.434 150.61 241.533L133.092 299.679C132.761 300.778 131.614 301.4 130.524 301.072ZM112.231 291.229L129.751 296.507L146.072 242.332L128.552 237.054L112.231 291.229Z" fill="#DFB2AA"/>
<path d="M142.317 221.084C141.831 220.938 141.401 220.606 141.137 220.151C140.731 219.452 140.765 218.581 141.22 217.924C142.775 215.663 156.783 195.796 168.569 195.52C171.902 195.441 174.826 196.957 177.011 199.882C179.573 203.311 179.181 206.183 178.399 207.969C174.144 217.72 146.275 220.833 143.113 221.151C142.845 221.186 142.57 221.146 142.321 221.071L142.317 221.084ZM170.419 199.889C169.854 199.719 169.262 199.642 168.641 199.657C161.906 199.808 152.7 209.728 147.442 216.434C158.342 214.822 172.472 211.237 174.629 206.313C174.952 205.573 175.212 204.38 173.721 202.386C172.748 201.097 171.667 200.265 170.432 199.893L170.419 199.889Z" fill="#DFB2AA"/>
<path d="M143.42 221.417C143.171 221.342 142.924 221.21 142.716 221.046C140.256 219.034 118.758 201.048 120.583 190.565C120.923 188.631 122.178 186.034 126.208 184.592C129.658 183.364 132.919 183.711 135.654 185.618C145.331 192.346 146.029 216.657 146.076 219.401C146.089 220.214 145.636 220.958 144.915 221.304C144.444 221.537 143.902 221.576 143.416 221.43L143.42 221.417ZM131.703 188.225C130.468 187.853 129.098 187.932 127.584 188.486C125.24 189.325 124.793 190.476 124.658 191.258C123.735 196.555 133.517 207.357 141.73 214.712C141.051 206.219 138.844 192.861 133.326 189.018C132.817 188.662 132.281 188.399 131.716 188.229L131.703 188.225Z" fill="#DFB2AA"/>
<path d="M205.67 288.489C196.792 285.815 188.97 277.826 186.613 269.578C183.955 260.286 189.155 252.105 193.735 244.893C198.127 237.97 201.919 231.993 198.526 226.422C193.848 218.746 189.137 218.785 172.881 223.057C165.912 224.886 158.425 223.728 152.403 222.794C149.089 222.287 145.683 221.752 144.524 222.226C143.463 222.657 142.272 222.139 141.848 221.073C141.425 220.007 141.944 218.806 143.005 218.375C145.205 217.492 148.492 217.992 153.049 218.7C158.687 219.576 165.725 220.656 171.853 219.051C187.161 215.027 195.46 213.441 202.033 224.244C206.766 232.024 201.903 239.7 197.19 247.118C192.882 253.907 188.415 260.936 190.556 268.427C193.368 278.256 205.584 287.727 215.84 284.737C222.557 282.79 227.98 275.585 229.662 266.388C229.871 265.267 230.945 264.507 232.057 264.712C233.157 264.914 233.92 265.996 233.711 267.117C231.714 278.025 225.296 286.301 216.962 288.714C213.226 289.798 209.343 289.61 205.653 288.499L205.67 288.489Z" fill="#DFB2AA"/>
<path d="M159.042 163.522L158.123 162.292C157.398 161.323 140.363 138.458 144.153 125.736C145.189 122.25 147.59 119.797 151.275 118.452C154.363 117.332 157.286 117.519 159.953 118.987C164.577 121.564 167.208 127.57 168.46 131.355C171.716 128.726 177.61 124.855 183.468 125.522C187.306 125.956 190.47 128.195 192.86 132.15C194.305 134.534 194.581 137.231 193.654 139.927C189.608 151.647 163.457 161.848 160.482 162.974L159.042 163.522ZM156.749 122.108C155.488 121.728 154.131 121.811 152.652 122.347C150.239 123.223 148.742 124.721 148.101 126.897C145.61 135.258 155.485 151.504 160.502 158.532C168.927 155.15 187.059 146.46 189.775 138.585C190.316 137.03 190.18 135.674 189.357 134.315C187.639 131.458 185.562 129.937 183.014 129.646C176.437 128.892 168.914 136.459 168.846 136.54L166.175 139.273L165.38 135.539C164.785 132.761 162.286 125.033 157.966 122.634C157.574 122.414 157.178 122.252 156.771 122.129L156.749 122.108Z" fill="#DFB2AA"/>
<path d="M-20.7958 152.204C-24.368 151.127 -27.3968 149.103 -29.5382 146.321C-30.2266 145.42 -30.0618 144.112 -29.1642 143.415C-28.2666 142.718 -26.9683 142.878 -26.2798 143.779C-23.3819 147.569 -19.0972 148.658 -16.0204 148.906C-10.0758 149.382 -3.53058 147.152 0.646131 143.226C6.2168 138.002 6.5944 129.711 6.96188 121.691C7.35523 113.016 7.76268 104.055 15.3408 100.013C26.0956 94.2708 31.7688 100.356 40.8797 111.577C44.5442 116.104 50.3023 118.864 54.9211 121.078C58.7261 122.903 61.4667 124.22 62.6656 126.184C63.2605 127.157 62.9604 128.439 61.9908 129.042C61.0212 129.645 59.7496 129.349 59.1547 128.375C58.5912 127.44 55.6839 126.059 53.1324 124.828C48.1395 122.429 41.9286 119.46 37.6802 114.209C27.9894 102.25 24.5705 99.761 17.2623 103.668C11.7822 106.595 11.4587 113.66 11.0828 121.85C10.7007 130.298 10.2531 139.868 3.4585 146.254C-1.53188 150.931 -9.31176 153.598 -16.3616 153.034C-17.9152 152.913 -19.4077 152.636 -20.7998 152.217L-20.7958 152.204Z" fill="#DFB2AA"/>
</g>
<path d="M1335.84 111.489C1325.38 109.288 1311.65 100.058 1309.7 98.7198C1309.05 98.2842 1308.73 97.5063 1308.86 96.7304C1309 95.9546 1309.55 95.3347 1310.32 95.1408C1312.88 94.439 1335.61 88.5464 1344.51 95.7382C1347.03 97.7681 1348.26 100.727 1348.06 104.271C1347.84 108.425 1345.77 110.293 1344.07 111.121C1341.91 112.18 1339.04 112.162 1335.85 111.491L1335.84 111.489ZM1315.84 97.9388C1324.92 103.602 1337.63 109.821 1342.29 107.516C1342.99 107.172 1343.92 106.441 1344.05 104.027C1344.17 101.762 1343.49 100.051 1341.98 98.8321C1336.9 94.7222 1323.9 96.2822 1315.84 97.9258L1315.84 97.9388Z" fill="#DFB2AA"/>
<path d="M1311.03 99.9684C1311.03 99.9684 1310.98 99.9574 1310.95 99.9519C1310.2 99.7664 1309.62 99.1535 1309.47 98.3852C1308.73 94.4524 1306.65 81.3207 1311.14 77.5477C1312.12 76.7305 1313.82 75.9443 1316.36 76.9014C1318.47 77.6998 1319.86 79.1793 1320.41 81.1763C1322.17 87.6682 1313.93 98.0977 1312.99 99.2632C1312.52 99.8446 1311.76 100.122 1311.03 99.9684ZM1314.49 80.5018C1313.98 80.3946 1313.8 80.5341 1313.73 80.6015C1312.32 81.7911 1312.11 87.1877 1312.71 92.8097C1315.1 89.0994 1317.22 84.664 1316.57 82.221C1316.43 81.7146 1316.12 81.0782 1314.97 80.6454C1314.78 80.578 1314.63 80.532 1314.5 80.5045L1314.49 80.5018Z" fill="#DFB2AA"/>
<path d="M1257.43 134.256L1183.46 118.688C1182.37 118.46 1181.68 117.401 1181.91 116.317L1197.48 42.3492C1197.71 41.2654 1198.77 40.5747 1199.85 40.8028L1273.82 56.3709C1274.9 56.599 1275.59 57.6579 1275.37 58.7416L1259.8 132.71C1259.57 133.794 1258.51 134.484 1257.43 134.256ZM1186.24 115.183L1256.29 129.927L1271.04 59.8758L1200.99 45.1322L1186.24 115.183Z" fill="#DFB2AA"/>
<path d="M1318.78 147.169C1318.29 147.065 1317.82 146.762 1317.52 146.304L1269.08 72.0351C1268.47 71.1025 1268.73 69.8621 1269.66 69.267L1284.09 59.8549C1285.02 59.2467 1286.26 59.5077 1286.86 60.4375L1335.3 134.706C1335.91 135.638 1335.65 136.879 1334.72 137.474L1320.29 146.886C1319.83 147.185 1319.28 147.274 1318.78 147.169ZM1273.52 71.5249L1319.78 142.443L1330.84 135.226L1284.58 64.3086L1273.52 71.5249Z" fill="#DFB2AA"/>
<path d="M1231.12 128.718L1209.78 124.228C1208.7 124 1208.01 122.941 1208.23 121.857L1223.85 47.6671C1224.08 46.5833 1225.14 45.8926 1226.22 46.1207L1247.56 50.6111C1248.64 50.8392 1249.33 51.8982 1249.1 52.9819L1233.49 127.172C1233.26 128.256 1232.2 128.947 1231.12 128.718ZM1212.56 120.723L1229.98 124.389L1244.77 54.116L1227.35 50.45L1212.56 120.723Z" fill="#DFB2AA"/>
<path d="M1290.77 16.972L1289.77 15.8629C1288.74 14.7036 1279.63 4.37475 1281.03 -2.40736C1281.47 -4.45732 1282.75 -6.04071 1284.79 -6.97542C1286.51 -7.77199 1288.29 -7.80645 1289.92 -7.06779C1292.12 -6.08795 1293.64 -3.88486 1294.61 -2.04595C1296.31 -3.44725 1298.8 -4.98192 1301.51 -4.90235C1303.05 -4.85021 1305.28 -4.24422 1307.21 -1.62882C1308.21 -0.273702 1308.51 1.33091 1308.1 2.98847C1306.48 9.35758 1293.58 15.6421 1292.13 16.3445L1290.78 16.9878L1290.77 16.972ZM1287.88 -3.55812C1287.43 -3.65155 1286.98 -3.58281 1286.47 -3.33676C1285.33 -2.82473 1285.07 -2.13133 1284.95 -1.59599C1284.27 1.7102 1288.43 8.06662 1291.75 12.0515C1296.64 9.53611 1303.42 5.13968 1304.2 2.0046C1304.33 1.50088 1304.26 1.13116 1303.96 0.740846C1303.18 -0.337337 1302.34 -0.869189 1301.37 -0.894563C1299.06 -0.972777 1296.23 1.77277 1295.43 2.73558L1293.06 5.56425L1291.97 2.0362C1291.61 0.896831 1290.17 -2.5563 1288.28 -3.40489C1288.14 -3.46124 1288 -3.51758 1287.86 -3.54781L1287.88 -3.55812Z" fill="#DFB2AA"/>
<path d="M1242.58 40.2917L1241.59 39.1826C1240.8 38.3085 1222.37 17.6851 1224.97 5.14208C1225.68 1.70533 1227.8 -0.848444 1231.26 -2.43883C1234.16 -3.76529 1237 -3.82042 1239.71 -2.62346C1244.41 -0.516746 1247.46 5.04877 1249 8.58916C1251.93 5.79757 1257.31 1.59914 1263.04 1.76925C1266.8 1.87763 1270.04 3.77345 1272.7 7.388C1274.3 9.56567 1274.8 12.1379 1274.13 14.8056C1271.19 26.4058 1246.72 38.326 1243.93 39.6484L1242.58 40.2917ZM1236.87 0.637485C1235.62 0.373667 1234.31 0.562034 1232.92 1.19709C1230.66 2.2342 1229.33 3.7963 1228.9 5.9404C1227.19 14.1849 1238.12 29.0176 1243.58 35.374C1251.45 31.4414 1268.29 21.6347 1270.26 13.8273C1270.65 12.2872 1270.4 10.9946 1269.49 9.75285C1267.59 7.14295 1265.44 5.847 1262.95 5.77223C1256.52 5.57673 1249.87 13.4628 1249.81 13.5459L1247.45 16.3904L1246.36 12.8624C1245.55 10.2373 1242.48 3.0046 1238.09 1.04493C1237.69 0.865592 1237.3 0.74123 1236.89 0.656039L1236.87 0.637485Z" fill="#DFB2AA"/>
<path d="M1147.86 361.448L1042.3 329.949C1040.75 329.488 1039.87 327.865 1040.34 326.317L1064.68 244.713C1065.15 243.164 1066.77 242.287 1068.31 242.748L1173.88 274.247C1175.43 274.709 1176.3 276.331 1175.84 277.88L1151.49 359.484C1151.03 361.032 1149.41 361.91 1147.86 361.448ZM1046.76 325.186L1146.74 355.017L1169.42 279.01L1069.44 249.179L1046.76 325.186Z" fill="#DFB2AA"/>
<path d="M1180.79 282.571L1057.01 245.638C1055.47 245.177 1054.59 243.553 1055.06 242.004L1062.25 217.899C1062.71 216.35 1064.33 215.471 1065.88 215.932L1189.65 252.865C1191.2 253.326 1192.07 254.949 1191.61 256.499L1184.42 280.604C1183.96 282.153 1182.34 283.032 1180.79 282.571ZM1061.48 240.87L1179.67 276.136L1185.19 257.633L1067 222.367L1061.48 240.87Z" fill="#DFB2AA"/>
<path d="M1109.58 350.025L1079.62 341.087C1078.1 340.633 1077.24 339.021 1077.7 337.479L1102.06 255.853C1102.52 254.311 1104.12 253.432 1105.64 253.886L1135.6 262.824C1137.12 263.278 1137.97 264.89 1137.51 266.432L1113.16 348.058C1112.7 349.6 1111.1 350.479 1109.58 350.025ZM1084.03 336.332L1108.49 343.629L1131.18 267.579L1106.73 260.282L1084.03 336.332Z" fill="#DFB2AA"/>
<path d="M1126.09 238.073C1125.4 237.866 1124.78 237.396 1124.4 236.753C1123.82 235.762 1123.86 234.53 1124.5 233.601C1126.7 230.403 1146.55 202.304 1163.38 201.922C1168.14 201.812 1172.33 203.959 1175.47 208.099C1179.16 212.952 1178.62 217.014 1177.52 219.541C1171.52 233.333 1131.74 237.72 1127.23 238.168C1126.85 238.217 1126.46 238.161 1126.1 238.055L1126.09 238.073ZM1166.05 208.124C1165.24 207.882 1164.39 207.773 1163.51 207.794C1153.91 208.009 1140.82 222.032 1133.37 231.515C1148.92 229.261 1169.08 224.18 1172.12 217.215C1172.57 216.168 1172.93 214.48 1170.79 211.658C1169.39 209.833 1167.83 208.656 1166.07 208.129L1166.05 208.124Z" fill="#DFB2AA"/>
<path d="M1127.21 238.408C1126.86 238.303 1126.52 238.119 1126.23 237.889C1122.78 235.066 1092.69 209.827 1095.25 195.005C1095.72 192.27 1097.48 188.593 1103.12 186.523C1107.96 184.743 1112.52 185.227 1116.36 187.881C1129.9 197.309 1130.87 231.646 1130.94 235.521C1130.96 236.668 1130.32 237.723 1129.31 238.218C1128.65 238.551 1127.89 238.611 1127.21 238.408ZM1110.81 191.632C1109.08 191.117 1107.16 191.238 1105.04 192.033C1101.76 193.236 1101.13 194.865 1100.94 195.971C1099.65 203.46 1113.35 218.643 1124.84 228.969C1123.9 216.977 1120.81 198.124 1113.08 192.739C1112.37 192.241 1111.62 191.874 1110.83 191.638L1110.81 191.632Z" fill="#DFB2AA"/>
<path d="M316.127 266.274C315.893 266.342 315.633 266.364 315.371 266.334C314.629 266.257 314.001 265.748 313.767 265.032C312.96 262.621 306.091 241.235 312.522 232.339C314.338 229.819 317.098 228.487 320.505 228.469C324.5 228.453 326.393 230.336 327.289 231.91C332.129 240.461 318.771 262.889 317.239 265.42C316.987 265.839 316.582 266.142 316.127 266.274ZM318.459 232.584C317.291 232.923 316.361 233.578 315.64 234.585C311.971 239.676 314.147 252.003 316.165 259.605C321.105 250.622 326.386 238.126 323.935 233.813C323.576 233.173 322.821 232.316 320.503 232.323C319.758 232.327 319.065 232.421 318.451 232.6L318.459 232.584Z" fill="#DFB2AA"/>
<path d="M316.994 265.637C316.994 265.637 316.945 265.651 316.921 265.659C314.048 266.372 288.619 272.419 281.875 265.258C280.628 263.945 279.407 261.575 280.598 257.774C281.616 254.528 283.715 252.298 286.671 251.321C286.794 251.285 286.93 251.246 287.053 251.21C297.542 248.168 315.546 260.781 317.585 262.25C318.191 262.685 318.489 263.436 318.342 264.17C318.2 264.875 317.687 265.45 316.998 265.649L316.994 265.637ZM288.132 254.884C288.046 254.909 287.96 254.934 287.874 254.959C286.099 255.554 284.913 256.841 284.25 258.921C283.554 261.117 284.158 262.097 284.659 262.63C288.066 266.24 301.58 264.938 311.656 262.906C305.074 258.782 294.129 253.131 288.128 254.872L288.132 254.884Z" fill="#DFB2AA"/>
<path d="M394.111 260.094C388.528 261.713 382.449 261.669 377.585 259.837C369.205 256.686 366.052 248.297 363.268 240.905C360.597 233.811 358.3 227.686 352.262 227.138C343.948 226.374 341.318 229.901 335.347 244.338C332.793 250.515 327.72 255.456 323.643 259.416C321.408 261.593 319.089 263.847 318.797 264.955C318.521 265.979 317.468 266.577 316.442 266.303C315.416 266.029 314.818 264.979 315.094 263.956C315.666 261.836 317.889 259.663 320.979 256.667C324.795 252.955 329.559 248.33 331.805 242.881C337.434 229.287 340.91 222.244 352.619 223.313C361.055 224.083 364.002 231.946 366.859 239.544C369.479 246.506 372.178 253.697 378.929 256.244C387.804 259.584 401.684 255.731 405.238 246.473C407.561 240.417 405.276 232.401 399.398 226.065C398.68 225.29 398.729 224.079 399.507 223.362C400.286 222.644 401.499 222.691 402.217 223.466C409.182 230.975 411.717 240.314 408.821 247.839C406.448 254.043 400.613 258.195 394.095 260.085L394.111 260.094Z" fill="#DFB2AA"/>
<path d="M277.395 346.421C276.202 346.767 274.974 346.99 273.703 347.066C265.637 347.572 257.453 342.383 252.346 333.511C251.816 332.602 252.139 331.418 253.055 330.9C253.968 330.37 255.154 330.69 255.672 331.603C259.988 339.083 266.966 343.651 273.46 343.242C283.382 342.61 291.198 330.535 290.644 321.087C290.225 313.898 284.136 309.179 278.265 304.609C271.847 299.626 265.205 294.469 266.968 286.209C269.425 274.731 277.203 273.511 291.885 272.19C297.772 271.665 303.603 268.512 308.307 265.977C312.088 263.937 314.818 262.454 317.03 262.543C318.094 262.58 318.913 263.473 318.874 264.534C318.835 265.595 317.939 266.413 316.875 266.376C315.714 266.327 312.881 267.867 310.14 269.353C305.137 272.054 298.913 275.414 292.233 276.009C276.641 277.409 272.483 278.841 270.744 287.001C269.476 292.924 274.653 296.938 280.639 301.581C286.885 306.428 293.971 311.921 294.494 320.847C295.083 330.923 287.794 343.391 277.403 346.405L277.395 346.421Z" fill="#DFB2AA"/>
<path d="M387.531 348.085L317.869 368.292C316.848 368.588 315.786 368.006 315.491 366.988L295.346 297.541C295.051 296.524 295.636 295.463 296.657 295.167L366.32 274.96C367.34 274.664 368.402 275.246 368.698 276.264L388.842 345.711C389.137 346.729 388.552 347.789 387.531 348.085ZM318.646 364.079L384.62 344.942L365.542 279.173L299.568 298.31L318.646 364.079Z" fill="#DFB2AA"/>
<path d="M293.297 302.654C292.509 302.883 291.622 302.582 291.145 301.856L282.176 288.031C281.905 287.604 281.809 287.088 281.918 286.591C282.027 286.094 282.328 285.661 282.753 285.378L354.201 239.202C355.087 238.626 356.28 238.878 356.856 239.761L365.826 253.586C366.096 254.013 366.193 254.53 366.084 255.026C365.975 255.523 365.674 255.956 365.249 256.239L293.8 302.415C293.642 302.514 293.465 302.592 293.293 302.642L293.297 302.654ZM286.452 287.561L293.331 298.179L361.556 254.08L354.677 243.463L286.452 287.561Z" fill="#DFB2AA"/>
<path d="M362.578 354.672L342.485 360.5C341.464 360.796 340.402 360.214 340.107 359.196L320.133 290.337C319.838 289.32 320.424 288.26 321.444 287.963L341.537 282.135C342.558 281.839 343.62 282.421 343.915 283.439L363.889 352.298C364.185 353.315 363.599 354.375 362.578 354.672ZM343.263 356.287L359.667 351.529L340.76 286.348L324.356 291.106L343.263 356.287Z" fill="#DFB2AA"/>
<g clip-path="url(#clip2_2085_1843)">
<path d="M1516.94 276.119L1418.85 299.136C1417.41 299.474 1415.98 298.584 1415.64 297.144L1397.84 221.27C1397.5 219.831 1398.39 218.396 1399.82 218.059L1497.92 195.041C1499.35 194.704 1500.79 195.594 1501.13 197.034L1518.93 272.907C1519.27 274.347 1518.38 275.781 1516.94 276.119ZM1420.23 293.323L1513.12 271.524L1496.54 200.855L1403.64 222.653L1420.23 293.323Z" fill="#DFB2AA"/>
<path d="M1507.64 198.233L1392.56 225.236C1391.12 225.574 1389.69 224.684 1389.35 223.244L1384.09 200.85C1383.76 199.41 1384.64 197.975 1386.08 197.638L1501.16 170.634C1502.6 170.297 1504.03 171.187 1504.37 172.627L1509.62 195.021C1509.96 196.461 1509.07 197.895 1507.64 198.233ZM1393.93 219.423L1503.82 193.638L1499.78 176.448L1389.9 202.233L1393.93 219.423Z" fill="#DFB2AA"/>
<path d="M1482.12 284.601L1453.83 291.24C1452.39 291.577 1450.96 290.687 1450.62 289.247L1432.75 213.079C1432.41 211.639 1433.29 210.205 1434.73 209.868L1463.03 203.228C1464.46 202.891 1465.9 203.781 1466.23 205.221L1484.11 281.389C1484.44 282.829 1483.56 284.263 1482.12 284.601ZM1455.2 285.427L1478.3 280.006L1461.65 209.042L1438.55 214.462L1455.2 285.427Z" fill="#DFB2AA"/>
<path d="M1443.69 187.763C1443.05 187.914 1442.35 187.821 1441.76 187.484C1440.85 186.965 1440.32 185.971 1440.41 184.944C1440.7 181.418 1443.61 150.209 1456.68 142.292C1460.37 140.053 1464.64 139.857 1468.98 141.711C1474.08 143.883 1475.49 147.339 1475.76 149.837C1477.28 163.464 1447.97 184.927 1444.62 187.323C1444.35 187.535 1444.01 187.669 1443.68 187.746L1443.69 187.763ZM1461.58 145.974C1460.83 146.148 1460.12 146.445 1459.43 146.862C1451.97 151.375 1448.02 168.39 1446.44 179.265C1457.65 170.448 1471.22 157.31 1470.46 150.423C1470.34 149.389 1469.86 147.891 1466.9 146.628C1464.97 145.817 1463.22 145.588 1461.59 145.97L1461.58 145.974Z" fill="#DFB2AA"/>
<path d="M1445.16 187.418C1444.83 187.495 1444.47 187.507 1444.13 187.458C1440.06 186.801 1404.28 180.611 1399.56 167.736C1398.69 165.359 1398.43 161.652 1402.02 157.44C1405.11 153.843 1409 152.125 1413.3 152.488C1428.52 153.747 1445 180.427 1446.84 183.454C1447.38 184.352 1447.35 185.475 1446.77 186.327C1446.39 186.891 1445.8 187.285 1445.16 187.435L1445.16 187.418ZM1410.53 157.952C1408.9 158.334 1407.41 159.305 1406.07 160.902C1403.98 163.351 1404.22 164.923 1404.57 165.883C1406.96 172.388 1424.93 178.127 1438.91 181.032C1432.66 171.994 1421.55 158.514 1412.87 157.788C1412.06 157.72 1411.29 157.773 1410.55 157.948L1410.53 157.952Z" fill="#DFB2AA"/>
<path d="M1558.42 222.058C1546.72 224.805 1532.77 220.958 1524.79 213.26C1515.8 204.608 1516.36 192.123 1516.85 181.119C1517.31 170.56 1517.71 161.444 1510.3 157.418C1500.08 151.872 1494.81 154.957 1479.3 170.218C1472.67 176.752 1463.49 180.297 1456.12 183.143C1452.07 184.716 1447.89 186.318 1446.9 187.595C1445.98 188.761 1444.31 188.952 1443.15 188.036C1441.98 187.12 1441.79 185.445 1442.7 184.279C1444.6 181.874 1448.62 180.309 1454.2 178.158C1461.1 175.495 1469.71 172.158 1475.56 166.394C1490.16 152.022 1498.46 144.895 1512.83 152.706C1523.17 158.332 1522.67 170.035 1522.16 181.354C1521.71 191.71 1521.23 202.437 1528.47 209.412C1537.98 218.564 1557.83 221.228 1567.42 211.29C1573.7 204.784 1575.16 193.242 1571.1 181.894C1570.62 180.508 1571.33 178.967 1572.71 178.478C1574.08 177.993 1575.64 178.708 1576.13 180.093C1580.93 193.553 1579.06 206.93 1571.26 215.003C1567.76 218.624 1563.27 220.921 1558.41 222.063L1558.42 222.058Z" fill="#DFB2AA"/>
<path d="M1359.1 268.829C1354.24 269.971 1349.22 269.922 1344.46 268.222C1333.89 264.46 1326.27 253.31 1324.59 239.136C1324.41 237.677 1325.46 236.332 1326.92 236.172C1328.38 235.995 1329.72 237.035 1329.88 238.515C1331.3 250.481 1337.73 260.174 1346.26 263.206C1359.27 267.838 1375.86 256.625 1380.31 244.198C1383.69 234.728 1378.5 225.351 1373.48 216.262C1367.99 206.349 1362.33 196.092 1369.1 186.452C1378.5 173.062 1389.09 175.756 1408.58 182.127C1416.4 184.686 1425.57 183.833 1432.94 183.165C1438.9 182.61 1443.19 182.224 1445.96 183.532C1447.3 184.17 1447.86 185.76 1447.24 187.095C1446.6 188.433 1445.01 188.989 1443.68 188.368C1442.24 187.681 1437.77 188.09 1433.44 188.483C1425.57 189.213 1415.79 190.117 1406.93 187.219C1386.25 180.45 1380.15 180.014 1373.47 189.542C1368.63 196.445 1373.04 204.432 1378.15 213.682C1383.49 223.338 1389.52 234.275 1385.33 246.002C1381.61 256.43 1370.83 266.096 1359.12 268.843L1359.1 268.829Z" fill="#DFB2AA"/>
</g>
</g>
<defs>
<clipPath id="clip0_2085_1843">
<rect width="1511" height="353" fill="white"/>
</clipPath>
<clipPath id="clip1_2085_1843">
<rect width="288" height="186" fill="white" transform="translate(-6.8457 68) rotate(16.7657)"/>
</clipPath>
<clipPath id="clip2_2085_1843">
<rect width="259" height="145" fill="white" transform="translate(1309.5 176.168) rotate(-13.2056)"/>
</clipPath>
</defs>
</svg>
