<svg width="226" height="32" viewBox="0 0 226 32" fill="none" xmlns="http://www.w3.org/2000/svg">
<g clip-path="url(#clip0_2700_311)">
<path d="M26.8173 31.2763C26.6424 31.2842 26.4674 31.2922 26.2885 31.2922C19.9987 31.2922 16.321 25.5188 16.321 19.2922C16.321 17.4552 16.6271 15.8727 17.1758 14.5367C19.5136 15.2564 21.8276 16.1391 24.2211 16.481C26.4396 16.7276 28.7655 16.9144 30.829 15.7097C32.5386 14.7355 33.1787 12.2067 31.823 10.6679C28.6502 7.37964 22.3762 8.2027 18.6866 10.6997C18.0664 11.0615 17.4859 11.4671 16.9571 11.9204C17.0247 10.9462 16.9969 9.96413 16.8935 8.99395C16.5317 6.24246 15.7524 2.72755 13.4464 0.934311C11.4903 -0.644218 8.15846 -0.226723 7.08099 2.21065C5.92003 5.33988 8.15846 8.33789 10.3531 10.3458C11.6652 11.479 13.2715 12.2266 14.8419 12.9423C13.8798 12.7395 12.9057 12.6043 11.9117 12.5844C7.58195 12.4611 3.12498 13.9602 0.00390625 16.9979L0.274267 17.2882C3.44305 14.5168 7.74497 13.3757 11.8878 13.4989C12.9653 13.5347 14.0269 13.7097 15.0765 13.9562C13.681 15.8886 12.9096 18.2305 12.9096 20.7435C12.9096 27.9681 17.6489 31.9681 25.3582 31.9681C25.7876 31.9681 26.1891 31.9562 26.5827 31.9363C26.6106 31.9363 26.6344 31.9323 26.6583 31.9323C26.7577 31.9283 26.861 31.9244 26.9565 31.9204C26.9565 31.9204 26.9565 31.9164 26.9604 31.9124C29.4891 31.6977 31.6957 30.2067 33.4292 28.4333V27.8687H33.4252C31.6361 29.6619 29.3977 31.1689 26.8213 31.2763H26.8173ZM30.1889 14.7355C28.5428 15.7534 26.2647 15.6381 24.3483 15.4472C22.0542 15.1649 19.8396 14.3538 17.5853 13.6659C17.8557 13.1649 18.1658 12.7077 18.5157 12.2902C21.3942 9.39952 26.1573 9.02974 29.7475 10.7116C31.5367 11.483 31.8786 13.6063 30.1889 14.7355ZM9.8999 7.84882C8.73894 6.45717 7.56207 4.51284 8.20617 2.68779C8.93376 0.946239 11.3829 0.743456 12.7625 1.8687C15.4423 4.06354 16.1023 9.35976 15.8757 12.8031C14.8936 11.988 13.836 11.3081 12.8381 10.6003C11.7089 9.84087 10.7507 8.91045 9.8999 7.84882Z" fill="#32211E"/>
<path d="M48.9504 30.3816V25.0456C48.0439 28.7951 45.718 31.9999 42.3544 31.9999C39.9609 31.9999 37.957 30.481 37.957 27.7653C37.957 24.4333 41.3524 23.141 45.3601 22.0078L48.9504 20.974C48.8868 17.7732 47.1413 16.5446 44.7479 16.5446C42.9388 16.5446 41.1576 17.32 39.5076 19.2921L39.1856 19.0019C40.9946 16.7713 43.4875 15.2842 46.4297 15.2842C50.3419 15.2842 52.1828 17.3876 52.1828 21.3319V27.5744C52.1828 29.9045 52.4094 30.8746 53.4749 31.2285V31.6818H50.2425C49.4036 31.6818 48.9504 31.2285 48.9504 30.3895V30.3816ZM43.9726 29.6381C47.1413 29.6381 48.9186 25.1768 48.9504 22.2663V21.4273L45.4913 22.4293C43.9726 22.8508 40.9628 23.9482 40.9628 26.6321C40.9628 28.7673 42.4816 29.6381 43.9686 29.6381H43.9726Z" fill="#32211E"/>
<path d="M56.5801 31.2247C57.6457 30.8709 57.8723 29.8967 57.8723 27.5707V20.1353C57.8723 18.2267 57.3873 17.9047 56.5801 17.5468V17.0935L60.8463 15.2168L61.1683 15.4752V27.5707C61.1683 29.9007 61.395 30.8709 62.4605 31.2247V31.678H56.5762V31.2247H56.5801ZM57.1288 11.9206C57.1288 10.6601 58.0989 9.68994 59.3275 9.68994C60.6197 9.68994 61.5262 10.6601 61.5262 11.9206C61.5262 13.181 60.556 14.1194 59.3275 14.1194C58.0989 14.1194 57.1288 13.1492 57.1288 11.9206Z" fill="#32211E"/>
<path d="M67.7022 27.1175V16.024H65.6348V15.5071L70.4854 11.2407H71.0022V15.5071H76.0158L75.8886 16.024H71.0062V27.1493C71.0062 29.1532 71.7497 30.028 73.173 30.028C73.8847 30.028 74.9821 29.7377 76.0516 28.4097L76.3736 28.7318C74.66 30.7039 73.01 31.9962 71.0698 31.9962C68.8711 31.9962 67.7062 30.6045 67.7062 27.1135L67.7022 27.1175Z" fill="#32211E"/>
<path d="M79.3709 30.4133L79.0488 26.1787L79.3709 26.1151C80.7624 29.2205 83.0883 31.3875 85.9669 31.4193C87.9707 31.4511 89.2629 30.1271 89.2629 28.64C89.2629 26.5724 87.6129 25.7612 84.8019 24.8905C81.4065 23.8567 79.3073 22.9183 79.3073 20.0078C79.3073 17.5505 81.2157 15.2881 85.613 15.2881C87.4578 15.2881 89.4299 15.642 90.5272 16.0952L90.6902 19.6539L90.3006 19.7175C89.1993 17.4233 87.1954 15.7414 84.8377 15.7414C82.8021 15.7414 81.4741 16.807 81.4741 18.1986C81.4741 20.0078 83.0923 20.7871 85.9987 21.7573C88.587 22.632 91.4297 23.4074 91.4297 26.7036C91.4297 29.1609 89.8791 31.9441 85.1876 31.9441C82.8259 31.9441 80.5954 31.2324 79.3669 30.4253L79.3709 30.4133Z" fill="#32211E"/>
<path d="M103.846 20.7473C103.846 14.2145 109.018 8.81494 116.942 8.81494C119.336 8.81494 122.664 9.26822 124.345 10.3974L124.477 14.6678L124.087 14.7633C122.763 11.4312 119.431 9.42727 116.099 9.42727C110.927 9.42727 107.273 12.8547 107.273 19.2881C107.273 25.7215 110.959 31.3159 117.264 31.3159C120.886 31.3159 123.375 29.1171 124.54 25.7533L124.962 25.8169L124.445 30.4412C122.731 31.2165 120.274 31.9919 116.33 31.9919C108.601 31.9919 103.85 27.9799 103.85 20.7394L103.846 20.7473Z" fill="#32211E"/>
<path d="M129.868 25.9525V20.1315C129.868 18.2229 129.383 17.9008 128.576 17.543V17.0897L132.842 15.213L133.164 15.4714V25.5271C133.164 28.9863 133.713 30.7 136.202 30.7C137.657 30.7 139.24 29.8253 140.826 28.2428V20.1275C140.826 18.2189 140.341 17.8969 139.534 17.539V17.0857L143.8 15.209L144.122 15.4674V27.5629C144.122 29.8929 144.349 30.8631 145.414 31.2169V31.6702H142.118C141.279 31.6702 140.826 31.2169 140.826 30.378V28.9227C138.981 30.7 136.751 31.9963 134.715 31.9963C131.288 31.9963 129.864 29.8929 129.864 25.9485L129.868 25.9525Z" fill="#32211E"/>
<path d="M148.85 31.2247C149.915 30.8709 150.142 29.8967 150.142 27.5707V20.1353C150.142 18.2267 149.657 17.9047 148.85 17.5468V17.0935L153.116 15.2168L153.438 15.4752V19.3878C153.923 18.2546 154.762 17.2526 155.8 16.5409C156.996 15.7019 158.225 15.2804 159.775 15.2804C160.877 15.2804 161.843 15.5707 161.843 16.2506C161.843 16.9305 161.131 18.354 159.644 18.354C158.738 18.354 157.509 18.0319 155.442 17.3838C154.635 18.0637 153.533 19.519 153.438 21.1333V27.5667C153.438 29.8967 153.664 30.8669 154.73 31.2208V31.6741H148.846V31.2208L148.85 31.2247Z" fill="#32211E"/>
<path d="M174.001 30.3816V25.0456C173.095 28.7951 170.769 31.9999 167.405 31.9999C165.012 31.9999 163.008 30.481 163.008 27.7653C163.008 24.4333 166.403 23.141 170.411 22.0078L174.001 20.974C173.938 17.7732 172.192 16.5446 169.799 16.5446C167.99 16.5446 166.208 17.32 164.558 19.2921L164.236 19.0019C166.049 16.7713 168.538 15.2842 171.48 15.2842C175.393 15.2842 177.238 17.3876 177.238 21.3319V27.5744C177.238 29.9045 177.464 30.8746 178.53 31.2285V31.6818H175.297C174.458 31.6818 174.005 31.2285 174.005 30.3895L174.001 30.3816ZM169.023 29.6381C172.192 29.6381 173.969 25.1768 174.001 22.2663V21.4273L170.542 22.4293C169.023 22.8508 166.014 23.9482 166.014 26.6321C166.014 28.7673 167.532 29.6381 169.019 29.6381H169.023Z" fill="#32211E"/>
<path d="M183.441 27.1175V16.024H181.373V15.5071L186.224 11.2407H186.741V15.5071H191.754L191.623 16.024H186.741V27.1493C186.741 29.1532 187.484 30.028 188.907 30.028C189.619 30.028 190.716 29.7377 191.786 28.4097L192.108 28.7318C190.394 30.7039 188.744 31.9962 186.804 31.9962C184.605 31.9962 183.441 30.6045 183.441 27.1135V27.1175Z" fill="#32211E"/>
<path d="M194.4 24.2067C194.4 18.7117 198.702 15.2803 202.905 15.2803C207.107 15.2803 209.596 18.2862 209.596 21.1013H197.343C197.311 21.4592 197.279 21.7813 197.279 22.1351C197.279 26.3697 199.867 29.3797 203.97 29.3797C206.364 29.3797 208.205 28.3459 209.564 26.827L209.855 27.1491C208.368 29.4115 205.811 32 202.062 32C198.313 32 194.4 29.4433 194.4 24.2067ZM206.332 20.6481C205.911 17.996 204.133 15.8966 201.903 15.8608C199.156 15.829 197.764 18.1232 197.374 20.6481H206.332Z" fill="#32211E"/>
<path d="M213.541 30.4133L213.219 26.1787L213.541 26.1151C214.932 29.2205 217.258 31.3875 220.137 31.4193C222.141 31.4511 223.433 30.1271 223.433 28.64C223.433 26.5724 221.783 25.7612 218.972 24.8905C215.576 23.8567 213.477 22.9183 213.477 20.0078C213.477 17.5505 215.386 15.2881 219.783 15.2881C221.628 15.2881 223.6 15.642 224.697 16.0952L224.86 19.6539L224.471 19.7175C223.369 17.4233 221.365 15.7414 219.008 15.7414C216.972 15.7414 215.644 16.807 215.644 18.1986C215.644 20.0078 217.262 20.7871 220.169 21.7573C222.757 22.632 225.6 23.4074 225.6 26.7036C225.6 29.1609 224.049 31.9441 219.358 31.9441C216.996 31.9441 214.765 31.2324 213.537 30.4253L213.541 30.4133Z" fill="#32211E"/>
</g>
<defs>
<clipPath id="clip0_2700_311">
<rect width="225.6" height="32" fill="white"/>
</clipPath>
</defs>
</svg>
