<svg width="130" height="98" viewBox="0 0 130 98" fill="none" xmlns="http://www.w3.org/2000/svg">
<g clip-path="url(#clip0_1664_2937)">
<path d="M58.4533 25.9894C58.2756 25.9894 58.0886 25.9521 57.9109 25.8774C57.4059 25.672 57.0693 25.1866 57.0506 24.6359C56.9758 22.7782 56.5082 6.3577 62.8296 1.41943C64.6157 0.019163 66.8226 -0.354242 69.2165 0.327222C72.0218 1.13004 72.9663 2.83837 73.2749 4.12661C74.93 11.1186 60.9968 24.1504 59.4071 25.616C59.1453 25.8588 58.7993 25.9894 58.4533 25.9894ZM66.9441 2.80103C66.0558 2.80103 65.2703 3.07174 64.5596 3.63185C60.95 6.46039 59.9682 15.5621 59.8372 21.3126C65.13 16.0102 71.3766 8.30874 70.535 4.78007C70.4134 4.2573 70.0581 3.50116 68.431 3.0344C67.9073 2.88504 67.4023 2.81036 66.9348 2.81036L66.9441 2.80103Z" fill="#64765B"/>
<path d="M59.192 25.7181C59.192 25.7181 59.1546 25.7181 59.1359 25.7181C56.9757 25.6341 37.9087 24.7006 34.6358 18.2967C34.028 17.1205 33.6539 15.2068 35.2623 12.7797C36.6369 10.7073 38.5633 9.56839 40.8356 9.48438C40.9291 9.48438 41.032 9.48438 41.1255 9.48438C49.1021 9.48438 59.1639 22.0121 60.2954 23.459C60.6321 23.8885 60.6882 24.4766 60.4357 24.962C60.1925 25.4287 59.7156 25.7275 59.192 25.7275V25.7181ZM41.1349 12.2849C41.0694 12.2849 41.0039 12.2849 40.9385 12.2849C39.5732 12.3409 38.4791 13.0037 37.5908 14.3293C36.6556 15.7296 36.8801 16.5417 37.1232 17.0178C38.7784 20.2478 48.5223 22.0868 56.0032 22.7122C52.2253 18.4741 45.6982 12.2756 41.1349 12.2756V12.2849Z" fill="#64765B"/>
<path d="M114.411 37.5365C110.166 37.5365 105.911 36.2669 102.872 33.9892C97.6353 30.0684 97.1303 23.5338 96.6814 17.7741C96.2513 12.2477 95.8866 7.47744 91.7627 5.86246C86.0866 3.63137 83.5243 5.57307 76.3988 14.4974C73.3503 18.3155 68.7869 20.752 65.1212 22.703C63.1107 23.7765 61.0254 24.8874 60.5953 25.6062C60.1932 26.269 59.3329 26.4744 58.6689 26.073C58.005 25.6716 57.7993 24.8127 58.2014 24.1499C59.0336 22.7777 61.0348 21.7041 63.8121 20.2292C67.244 18.3995 71.5268 16.1217 74.2106 12.7518C80.9247 4.35017 84.7961 0.112032 92.7914 3.24863C98.5517 5.50773 99.0192 11.6316 99.4774 17.55C99.8982 22.9737 100.328 28.5748 104.546 31.7394C110.091 35.8935 120.611 36.0149 124.987 30.2364C127.849 26.4557 127.877 20.3599 125.044 14.7121C124.698 14.0213 124.978 13.1812 125.67 12.8358C126.362 12.4904 127.204 12.7704 127.55 13.4612C130.907 20.1545 130.785 27.2305 127.222 31.9261C124.295 35.8002 119.358 37.5272 114.402 37.5272L114.411 37.5365Z" fill="#64765B"/>
<path d="M14.9805 74.3916C14.0734 74.3916 13.1664 74.2983 12.2593 74.0929C6.49899 72.8047 1.81406 67.493 0.0373335 60.2209C-0.14969 59.4741 0.317869 58.7086 1.06596 58.5313C1.81406 58.3446 2.58085 58.8113 2.75852 59.5581C4.26406 65.6913 8.22896 70.3215 12.8671 71.3577C19.9553 72.9353 27.8945 66.046 29.4281 59.2967C30.597 54.1624 27.2866 49.6069 24.0979 45.2007C20.6099 40.3931 17.0004 35.4175 19.9179 29.9752C23.9763 22.4137 29.6805 23.1419 40.2474 25.2049C44.4835 26.0357 49.2151 25.0089 53.0304 24.1874C56.0976 23.5246 58.3138 23.0392 59.8474 23.5526C60.5862 23.7953 60.9789 24.5888 60.7358 25.3263C60.4927 26.0638 59.6978 26.4558 58.9591 26.2131C58.1549 25.9424 55.8545 26.4465 53.6289 26.9319C49.5705 27.8094 44.5209 28.9016 39.7144 27.9588C28.493 25.765 25.2855 25.9237 22.4053 31.3008C20.3107 35.2028 23.1254 39.0769 26.3796 43.5578C29.7741 48.2346 33.6267 53.537 32.1773 59.9129C30.5409 67.1102 22.8916 74.3823 14.9899 74.3823L14.9805 74.3916Z" fill="#64765B"/>
<path d="M91.8946 98.0003H38.9203C38.1441 98.0003 37.5176 97.3749 37.5176 96.6001V43.7167C37.5176 42.9419 38.1441 42.3164 38.9203 42.3164H91.8946C92.6708 42.3164 93.2973 42.9419 93.2973 43.7167V96.6001C93.2973 97.3749 92.6708 98.0003 91.8946 98.0003ZM40.3229 95.1998H90.492V45.1169H40.3229V95.1998Z" fill="#64765B"/>
<path d="M35.038 46.8897C34.4396 46.8897 33.8785 46.4976 33.6915 45.8908L30.2128 34.3526C30.11 33.9979 30.1474 33.6151 30.325 33.2884C30.5027 32.9617 30.8019 32.719 31.1573 32.6069L90.6681 14.7302C91.4069 14.5062 92.1924 14.9262 92.4168 15.6637L95.8955 27.2019C95.9983 27.5567 95.9609 27.9394 95.7832 28.2661C95.6056 28.5929 95.3063 28.8356 94.951 28.9476L35.4401 46.8243C35.3092 46.8617 35.1689 46.8803 35.038 46.8803V46.8897ZM33.3081 34.8941L35.9731 43.7531L92.8002 26.6792L90.1351 17.8201L33.3081 34.8941Z" fill="#64765B"/>
<path d="M73.0516 97.5425H57.7718C56.9957 97.5425 56.3691 96.917 56.3691 96.1422V43.7069C56.3691 42.9321 56.9957 42.3066 57.7718 42.3066H73.0516C73.8278 42.3066 74.4543 42.9321 74.4543 43.7069V96.1422C74.4543 96.917 73.8278 97.5425 73.0516 97.5425ZM59.1745 94.742H71.649V45.1072H59.1745V94.742Z" fill="#64765B"/>
</g>
<defs>
<clipPath id="clip0_1664_2937">
<rect width="130" height="98" fill="white"/>
</clipPath>
</defs>
</svg>
