<svg width="170" height="157" viewBox="0 0 170 157" fill="none" xmlns="http://www.w3.org/2000/svg">
<path fill-rule="evenodd" clip-rule="evenodd" d="M93.3413 0.0581753C132.423 1.42925 152.719 35.4862 163.917 67.2518C174.064 96.0324 173.811 129.46 145.216 147.204C116.373 165.102 77.9339 156.203 48.7347 138.726C17.9556 120.303 -7.7525 92.3894 2.15922 61.577C13.4568 26.4564 50.4291 -1.44727 93.3413 0.0581753Z" fill="#F9DCD7"/>
<path d="M77.2085 92.36C72.5285 92.36 67.5965 89.588 67.5965 83.468C67.5965 77.636 72.2765 73.748 77.2085 73.748C81.6725 73.748 86.7845 76.376 86.7845 82.712C86.7845 88.868 81.4565 92.36 77.2085 92.36ZM78.4685 91.568C81.9965 91.568 83.1485 88.508 83.1485 85.448C83.1485 80.876 80.0165 74 75.3725 74.468C72.2405 74.792 71.1965 77.672 71.1965 80.768C71.1965 85.016 73.7165 91.568 78.4685 91.568ZM89.2853 92V91.496C90.4733 91.1 90.7253 90.02 90.7253 87.428V79.148C90.7253 77.024 90.1853 76.664 89.2853 76.268V75.764L94.0373 73.676L94.3973 73.964V78.32C94.9373 77.06 95.8733 75.944 97.0253 75.152C98.3573 74.216 99.7253 73.748 101.453 73.748C102.677 73.748 103.757 74.072 103.757 74.828C103.757 75.62 102.965 77.168 101.309 77.168C100.301 77.168 98.9333 76.808 96.6293 76.088C95.7293 76.844 94.5053 78.464 94.3973 80.264V87.428C94.3973 90.02 94.6493 91.1 95.8373 91.496V92H89.2853Z" fill="#32211E"/>
</svg>
