<svg width="212" height="168" viewBox="0 0 212 168" fill="none" xmlns="http://www.w3.org/2000/svg">
            <circle cx="60" cy="108" r="55" fill="#F9DCD7" stroke="#FFF9F4" stroke-width="10"/>
            <circle cx="60" cy="108" r="41.5" fill="#F9DCD7" stroke="#BC2C36"/>
            <g clip-path="url(#clip0_1934_5716)">
            <path d="M75.4942 129.908H44.5023C44.0482 129.908 43.6816 129.546 43.6816 129.097V105.448C43.6816 104.999 44.0482 104.637 44.5023 104.637H75.4942C75.9483 104.637 76.3148 104.999 76.3148 105.448V129.097C76.3148 129.546 75.9483 129.908 75.4942 129.908ZM45.3229 128.286H74.6736V106.259H45.3229V128.286Z" fill="#BC2C36"/>
            <path d="M78.1794 106.253H41.8206C41.3665 106.253 41 105.891 41 105.442V98.4624C41 98.0136 41.3665 97.6514 41.8206 97.6514H78.1794C78.6335 97.6514 79 98.0136 79 98.4624V105.442C79 105.891 78.6335 106.253 78.1794 106.253ZM42.6412 104.631H77.3588V99.2734H42.6412V104.631Z" fill="#BC2C36"/>
            <path d="M64.4688 130H55.5296C55.0755 130 54.709 129.638 54.709 129.189V105.443C54.709 104.994 55.0755 104.632 55.5296 104.632H64.4688C64.9229 104.632 65.2895 104.994 65.2895 105.443V129.189C65.2895 129.638 64.9229 130 64.4688 130ZM56.3502 128.378H63.6482V106.254H56.3502V128.378Z" fill="#BC2C36"/>
            <path d="M59.7694 98.7275C59.567 98.7275 59.3646 98.6518 59.2114 98.5112C58.9762 98.2949 58.8886 97.9651 58.9871 97.6677C59.3208 96.6459 62.3845 87.6274 66.8541 86.1947C68.1178 85.7892 69.4035 86.027 70.5797 86.8759C71.9528 87.8707 72.1334 88.9899 72.0404 89.7469C71.5371 93.8776 61.252 98.1868 60.0813 98.6626C59.9828 98.7058 59.8734 98.7221 59.7694 98.7221V98.7275ZM68.0631 87.622C67.8279 87.622 67.5926 87.6599 67.3574 87.7356C64.808 88.552 62.4282 93.3045 61.1918 96.408C65.1691 94.5805 70.153 91.6392 70.4101 89.5522C70.4484 89.2386 70.4101 88.7629 69.6113 88.1843C69.0916 87.8113 68.5828 87.622 68.0686 87.622H68.0631Z" fill="#BC2C36"/>
            <path d="M60.2289 98.7274C60.125 98.7274 60.0155 98.7058 59.9171 98.668C58.7463 98.1922 48.4667 93.883 47.958 89.7523C47.865 88.9899 48.0455 87.8761 49.4187 86.8813C50.5949 86.0216 51.8805 85.7891 53.1443 86.1946C57.6139 87.622 60.672 96.6458 61.0112 97.6677C61.1097 97.9705 61.0222 98.3003 60.7869 98.5112C60.6337 98.6517 60.4313 98.7274 60.2289 98.7274ZM51.9352 87.622C51.421 87.622 50.9067 87.8058 50.3925 88.1843C49.5937 88.7628 49.5554 89.244 49.5937 89.5522C49.8508 91.6392 54.8293 94.5805 58.812 96.4079C57.5756 93.3045 55.1958 88.552 52.6464 87.7355C52.4112 87.6599 52.1759 87.622 51.9407 87.622H51.9352Z" fill="#BC2C36"/>
            </g>
            <circle cx="152" cy="108" r="55" fill="#F9DCD7" stroke="#FFF9F4" stroke-width="10"/>
            <circle cx="152" cy="108" r="41.5" fill="#F9DCD7" stroke="#BC2C36"/>
            <g clip-path="url(#clip1_1934_5716)">
            <path d="M167.494 129.908H136.502C136.048 129.908 135.682 129.546 135.682 129.097V105.448C135.682 104.999 136.048 104.637 136.502 104.637H167.494C167.948 104.637 168.315 104.999 168.315 105.448V129.097C168.315 129.546 167.948 129.908 167.494 129.908ZM137.323 128.286H166.674V106.259H137.323V128.286Z" fill="#BC2C36"/>
            <path d="M170.179 106.253H133.821C133.367 106.253 133 105.891 133 105.442V98.4624C133 98.0136 133.367 97.6514 133.821 97.6514H170.179C170.633 97.6514 171 98.0136 171 98.4624V105.442C171 105.891 170.633 106.253 170.179 106.253ZM134.641 104.631H169.359V99.2734H134.641V104.631Z" fill="#BC2C36"/>
            <path d="M156.469 130H147.53C147.076 130 146.709 129.638 146.709 129.189V105.443C146.709 104.994 147.076 104.632 147.53 104.632H156.469C156.923 104.632 157.289 104.994 157.289 105.443V129.189C157.289 129.638 156.923 130 156.469 130ZM148.35 128.378H155.648V106.254H148.35V128.378Z" fill="#BC2C36"/>
            <path d="M151.769 98.7275C151.567 98.7275 151.365 98.6518 151.211 98.5112C150.976 98.2949 150.889 97.9651 150.987 97.6677C151.321 96.6459 154.384 87.6274 158.854 86.1947C160.118 85.7892 161.403 86.027 162.58 86.8759C163.953 87.8707 164.133 88.9899 164.04 89.7469C163.537 93.8776 153.252 98.1868 152.081 98.6626C151.983 98.7058 151.873 98.7221 151.769 98.7221V98.7275ZM160.063 87.622C159.828 87.622 159.593 87.6599 159.357 87.7356C156.808 88.552 154.428 93.3045 153.192 96.408C157.169 94.5805 162.153 91.6392 162.41 89.5522C162.448 89.2386 162.41 88.7629 161.611 88.1843C161.092 87.8113 160.583 87.622 160.069 87.622H160.063Z" fill="#BC2C36"/>
            <path d="M152.229 98.7274C152.125 98.7274 152.016 98.7058 151.917 98.668C150.746 98.1922 140.467 93.883 139.958 89.7523C139.865 88.9899 140.045 87.8761 141.419 86.8813C142.595 86.0216 143.881 85.7891 145.144 86.1946C149.614 87.622 152.672 96.6458 153.011 97.6677C153.11 97.9705 153.022 98.3003 152.787 98.5112C152.634 98.6517 152.431 98.7274 152.229 98.7274ZM143.935 87.622C143.421 87.622 142.907 87.8058 142.392 88.1843C141.594 88.7628 141.555 89.244 141.594 89.5522C141.851 91.6392 146.829 94.5805 150.812 96.4079C149.576 93.3045 147.196 88.552 144.646 87.7355C144.411 87.6599 144.176 87.622 143.941 87.622H143.935Z" fill="#BC2C36"/>
            </g>
            <circle cx="106" cy="60" r="55" fill="#F9DCD7" stroke="#FFF9F4" stroke-width="10"/>
            <circle cx="106" cy="60" r="41.5" fill="#F9DCD7" stroke="#BC2C36"/>
            <g clip-path="url(#clip2_1934_5716)">
            <path d="M121.494 81.9083H90.5023C90.0482 81.9083 89.6816 81.546 89.6816 81.0973V57.4482C89.6816 56.9995 90.0482 56.6372 90.5023 56.6372H121.494C121.948 56.6372 122.315 56.9995 122.315 57.4482V81.0973C122.315 81.546 121.948 81.9083 121.494 81.9083ZM91.3229 80.2863H120.674V58.2592H91.3229V80.2863Z" fill="#BC2C36"/>
            <path d="M124.179 58.2535H87.8206C87.3665 58.2535 87 57.8912 87 57.4425V50.4624C87 50.0136 87.3665 49.6514 87.8206 49.6514H124.179C124.633 49.6514 125 50.0136 125 50.4624V57.4425C125 57.8912 124.633 58.2535 124.179 58.2535ZM88.6412 56.6315H123.359V51.2734H88.6412V56.6315Z" fill="#BC2C36"/>
            <path d="M110.469 82.0002H101.53C101.076 82.0002 100.709 81.638 100.709 81.1892V57.4428C100.709 56.9941 101.076 56.6318 101.53 56.6318H110.469C110.923 56.6318 111.289 56.9941 111.289 57.4428V81.1892C111.289 81.638 110.923 82.0002 110.469 82.0002ZM102.35 80.3782H109.648V58.2539H102.35V80.3782Z" fill="#BC2C36"/>
            <path d="M105.769 50.7275C105.567 50.7275 105.365 50.6518 105.211 50.5112C104.976 50.2949 104.889 49.9651 104.987 49.6677C105.321 48.6459 108.384 39.6274 112.854 38.1947C114.118 37.7892 115.403 38.027 116.58 38.8759C117.953 39.8707 118.133 40.9899 118.04 41.7469C117.537 45.8776 107.252 50.1868 106.081 50.6626C105.983 50.7058 105.873 50.7221 105.769 50.7221V50.7275ZM114.063 39.622C113.828 39.622 113.593 39.6599 113.357 39.7356C110.808 40.552 108.428 45.3045 107.192 48.408C111.169 46.5805 116.153 43.6392 116.41 41.5522C116.448 41.2386 116.41 40.7629 115.611 40.1843C115.092 39.8113 114.583 39.622 114.069 39.622H114.063Z" fill="#BC2C36"/>
            <path d="M106.229 50.7274C106.125 50.7274 106.016 50.7058 105.917 50.668C104.746 50.1922 94.4667 45.883 93.958 41.7523C93.865 40.9899 94.0455 39.8761 95.4187 38.8813C96.5949 38.0216 97.8805 37.7891 99.1443 38.1946C103.614 39.622 106.672 48.6458 107.011 49.6677C107.11 49.9705 107.022 50.3003 106.787 50.5112C106.634 50.6517 106.431 50.7274 106.229 50.7274ZM97.9352 39.622C97.421 39.622 96.9067 39.8058 96.3925 40.1843C95.5937 40.7628 95.5554 41.244 95.5937 41.5522C95.8508 43.6392 100.829 46.5805 104.812 48.4079C103.576 45.3045 101.196 40.552 98.6464 39.7355C98.4112 39.6599 98.1759 39.622 97.9407 39.622H97.9352Z" fill="#BC2C36"/>
            </g>
            <defs>
            <clipPath id="clip0_1934_5716">
            <rect width="38" height="44" fill="white" transform="translate(41 86)"/>
            </clipPath>
            <clipPath id="clip1_1934_5716">
            <rect width="38" height="44" fill="white" transform="translate(133 86)"/>
            </clipPath>
            <clipPath id="clip2_1934_5716">
            <rect width="38" height="44" fill="white" transform="translate(87 38)"/>
            </clipPath>
            </defs>
        </svg>