<svg width="147" height="171" viewBox="0 0 147 171" fill="none" xmlns="http://www.w3.org/2000/svg">
<path fill-rule="evenodd" clip-rule="evenodd" d="M72.3754 3.84343C95.008 2.19437 121.874 -6.614 137.595 9.75062C153.27 26.067 143.706 52.5445 140.705 74.9702C138.262 93.2247 132.885 109.794 122.198 124.793C108.552 143.944 95.8135 168.962 72.3754 170.867C48.3799 172.818 28.1433 152.898 13.7341 133.612C1.27637 116.937 0.316517 95.7803 0.729169 74.9702C1.13035 54.7384 1.65367 32.866 16.0145 18.6093C30.3424 4.38525 52.2394 5.3106 72.3754 3.84343Z" fill="#F4E6DC"/>
<g clip-path="url(#clip0_2085_1951)">
<path d="M80.8029 128H80.7342L67.5157 127.924C64.423 127.909 61.5212 126.687 59.3449 124.487C57.1685 122.288 55.9849 119.371 56.0001 116.278L56.2063 80.8076C56.2445 74.416 61.4907 69.2309 67.8594 69.292L81.0779 69.3684C87.4695 69.4066 92.6316 74.6298 92.5934 81.0214L92.3873 116.492C92.372 119.585 91.1502 122.487 88.9509 124.663C86.7669 126.824 83.8804 128.008 80.8106 128.008L80.8029 128ZM67.7906 71.5829C62.6896 71.5829 58.5278 75.7142 58.4972 80.8229L58.291 116.294C58.2758 118.775 59.2303 121.112 60.9714 122.884C62.7125 124.655 65.0416 125.633 67.5234 125.641L80.7419 125.717H80.7953C83.2542 125.717 85.5757 124.762 87.3244 123.037C89.0884 121.288 90.0735 118.966 90.0811 116.485L90.2873 81.0138C90.3025 78.532 89.348 76.1953 87.6069 74.4237C85.8658 72.652 83.5368 71.6746 81.055 71.6669L67.8365 71.5906H67.783L67.7906 71.5829Z" fill="#8D7A73"/>
<path d="M83.9264 71.4836H83.8959L65.0112 71.3767C63.484 71.369 62.0483 70.7658 60.9716 69.6738C59.8949 68.5818 59.3069 67.1462 59.3145 65.6113C59.3222 64.084 59.9254 62.6484 61.0174 61.5716C62.1018 60.5025 63.5298 59.9146 65.0418 59.9146H65.08L83.9646 60.0215C85.4919 60.0291 86.9275 60.6324 88.0042 61.7244C89.0809 62.8164 89.6689 64.252 89.6613 65.7869C89.6537 67.3142 89.0504 68.7498 87.9584 69.8265C86.874 70.8956 85.4461 71.4836 83.9341 71.4836H83.9264ZM65.0341 62.2055C64.1254 62.2055 63.2625 62.5567 62.6134 63.1982C61.9567 63.8473 61.5978 64.7025 61.5902 65.6265C61.5825 66.5505 61.9414 67.4134 62.5829 68.0625C63.232 68.7192 64.0872 69.0781 65.0112 69.0858L83.8959 69.1927H83.9188C84.8275 69.1927 85.6904 68.8414 86.3395 68.2C86.9962 67.5509 87.3551 66.6956 87.3628 65.7716C87.3704 64.8476 87.0115 63.9847 86.37 63.3356C85.7286 62.6865 84.8657 62.32 83.9417 62.3124L65.057 62.2055H65.0341Z" fill="#8D7A73"/>
<path d="M82.8731 61.5563C82.8731 61.5563 81.8651 58.7461 80.3913 56.7149L77.2451 52.3698C77.1153 52.1865 76.9473 52.0185 76.7564 51.8734L75.7179 51.0716L76.6495 50.1476C76.7182 50.0789 76.7946 50.0025 76.8557 49.9185L78.3829 47.8643C78.7037 47.4291 78.7571 46.9785 78.528 46.5356C78.2455 45.9782 77.4513 45.3138 76.115 45.3062L73.0833 45.2909H73.0604C71.747 45.2909 70.9452 45.9324 70.6626 46.4898C70.4335 46.9403 70.4793 47.3833 70.7924 47.8262L72.2968 49.9032C72.3579 49.9872 72.4266 50.0636 72.4953 50.1323L73.4193 51.064L72.3655 51.8505C72.167 51.9956 72.0066 52.1636 71.8692 52.3469L68.6772 56.6538C67.1804 58.6698 66.1495 61.4417 66.1419 61.4646L63.9961 60.6705C64.0419 60.5483 65.1492 57.5701 66.8444 55.2869L70.0364 50.98C70.0746 50.9341 70.1128 50.8807 70.151 50.8349L68.9444 49.1702C68.1273 48.0476 68.0128 46.6502 68.6313 45.4436C69.395 43.9545 71.1361 43 73.0681 43H73.0986L76.1302 43.0153C78.0775 43.0229 79.8262 44.008 80.5746 45.5047C81.1778 46.7189 81.048 48.1087 80.2157 49.2236L78.9938 50.8731C79.032 50.9189 79.0702 50.9723 79.1008 51.0181L82.2469 55.3556C83.9193 57.6618 84.9884 60.6476 85.0342 60.7697L82.8731 61.5334V61.5563Z" fill="#8D7A73"/>
<path d="M91.4166 86.3438L74.3723 86.2445C73.7385 86.2445 73.2268 85.7252 73.2345 85.0914C73.2345 84.4576 73.7537 83.9536 74.3799 83.9536L91.4242 84.0529C92.058 84.0529 92.5697 84.5722 92.562 85.206C92.562 85.8398 92.0427 86.3438 91.4166 86.3438Z" fill="#8D7A73"/>
<path d="M91.2955 107.657L74.2512 107.558C73.6174 107.558 73.1057 107.038 73.1134 106.404C73.1134 105.771 73.6326 105.267 74.2588 105.267L91.3031 105.366C91.9369 105.366 92.4486 105.885 92.4409 106.519C92.4409 107.153 91.9216 107.657 91.2955 107.657Z" fill="#8D7A73"/>
<path d="M91.2876 96.9965L80.6731 96.9354C80.0392 96.9354 79.5276 96.4162 79.5352 95.7823C79.5352 95.1485 80.0545 94.6445 80.6807 94.6445L91.2952 94.7056C91.929 94.7056 92.4406 95.2249 92.433 95.8587C92.433 96.4925 91.9137 96.9965 91.2876 96.9965Z" fill="#8D7A73"/>
<path d="M91.1567 118.317L80.5422 118.256C79.9084 118.256 79.3967 117.737 79.4044 117.103C79.4044 116.469 79.9237 115.965 80.5498 115.965L91.1643 116.026C91.7981 116.026 92.3098 116.546 92.3021 117.18C92.3021 117.813 91.7829 118.317 91.1567 118.317Z" fill="#8D7A73"/>
</g>
<defs>
<clipPath id="clip0_2085_1951">
<rect width="36.5857" height="85" fill="white" transform="translate(56 43)"/>
</clipPath>
</defs>
</svg>
