<svg width="163" height="171" viewBox="0 0 163 171" fill="none" xmlns="http://www.w3.org/2000/svg">
<path fill-rule="evenodd" clip-rule="evenodd" d="M73.5297 0.1429C95.8711 1.8847 108.313 24.5767 123.987 40.5922C139.371 56.3118 161.258 69.0889 162.497 91.0491C163.769 113.593 146.819 132.451 130.021 147.54C114.256 161.702 94.7107 171.649 73.5297 170.967C52.9465 170.305 34.4302 159.241 20.5607 144.018C7.36008 129.529 1.77041 110.621 0.717903 91.0491C-0.409472 70.0845 1.41511 48.446 14.5401 32.0594C29.0694 13.9194 50.3587 -1.66359 73.5297 0.1429Z" fill="#F4E6DC"/>
<g clip-path="url(#clip0_2085_1906)">
<path d="M53.4777 123.531C52.6949 123.531 51.9121 123.197 51.3005 122.586C50.4443 121.737 49.9551 120.449 49.9551 119.055V95.8803H52.4014V119.055C52.4014 119.919 52.7194 120.547 53.0211 120.849C53.1271 120.955 53.2983 121.085 53.494 121.085H111.251C111.683 121.085 112.319 120.286 112.319 119.055V95.334H114.765V119.055C114.765 121.542 113.224 123.507 111.259 123.531H53.4777Z" fill="#8D7A73"/>
<path d="M51.2607 93.1408H48.8145V89.5366C48.8145 85.0436 52.4757 81.3823 56.9687 81.3823H107.705C112.173 81.3823 115.81 85.0191 115.81 89.4877V92.8309H113.364V89.4877C113.364 86.3646 110.828 83.8286 107.705 83.8286H56.9687C53.8212 83.8286 51.2607 86.389 51.2607 89.5366V93.1408Z" fill="#8D7A73"/>
<path d="M57.4992 103.284C56.904 103.284 56.3006 103.154 55.7053 102.901C52.4028 101.474 50.0218 96.4591 48.8965 93.5888L51.1715 92.6919C52.8268 96.9076 54.8817 99.8839 56.6675 100.65C57.1975 100.879 57.6705 100.895 58.1516 100.707C59.2198 100.275 60.0515 98.7342 60.8588 97.2338C61.9025 95.2931 62.9789 93.2871 64.9848 92.5206C68.059 91.3627 69.8448 94.2086 71.2718 96.4917C72.6906 98.7586 73.7344 100.226 75.1695 100.031C76.5231 99.8431 77.5179 98.3509 78.578 96.769C79.899 94.7957 81.3749 92.5532 84.0413 92.7897C86.4061 93.0099 87.5477 95.0729 88.461 96.7364C89.3253 98.3101 89.9206 99.2723 90.8583 99.3376C92.1304 99.4354 93.2393 97.7475 94.332 96.133C95.7101 94.0944 97.2676 91.7786 99.8198 92.1292C102.225 92.4717 103.367 94.9424 104.362 97.1278C105.055 98.6363 105.838 100.349 106.743 100.504C108.031 100.724 109.923 101.042 113.454 92.3657L115.721 93.2871C111.774 102.983 109.05 103.374 106.368 102.917C104.15 102.542 103.122 100.308 102.127 98.1471C101.353 96.451 100.546 94.706 99.461 94.551C98.4907 94.4043 97.6019 95.6274 96.338 97.4947C94.9354 99.5822 93.3454 101.939 90.6789 101.776C88.3386 101.621 87.2052 99.5659 86.3001 97.9106C85.4194 96.296 84.8078 95.3094 83.8049 95.2197C82.6959 95.1055 81.8479 96.2471 80.6002 98.1144C79.3526 99.9899 77.9338 102.11 75.4957 102.444C72.3644 102.868 70.6113 100.047 69.1924 97.7801C67.6024 95.2441 66.8603 94.4043 65.841 94.7957C64.6913 95.2278 63.8351 96.8261 63.0034 98.3754C61.9922 100.251 60.9566 102.2 59.0567 102.958C58.5511 103.162 58.0211 103.268 57.4911 103.268L57.4992 103.284Z" fill="#8D7A73"/>
<path d="M75.5839 59.6104H69.4355V82.6054H75.5839V59.6104Z" fill="#F4E6DC"/>
<path d="M76.7997 83.8285H68.2051V58.3872H76.7997V83.8285ZM70.6514 81.3822H74.3534V60.8335H70.6514V81.3822Z" fill="#8D7A73"/>
<path d="M72.1843 44.8916C72.1843 44.8916 68.1561 49.6782 69.5016 53.739C70.4393 56.5685 74.3289 56.1934 75.7396 54.0651C77.6151 51.2438 72.1762 44.8916 72.1762 44.8916H72.1843Z" fill="#F4E6DC"/>
<path d="M72.4204 56.9847C72.2002 56.9847 71.9882 56.9684 71.768 56.9439C70.1046 56.7238 68.857 55.6963 68.3351 54.1226C66.7939 49.4665 71.0586 44.3211 71.238 44.1091L72.1676 43.0083L73.1053 44.101C74.1165 45.2752 79.0253 51.3256 76.7584 54.7423C75.8452 56.1203 74.1246 56.9847 72.4204 56.9847ZM72.2328 46.9223C71.2543 48.4472 69.9252 51.1055 70.6672 53.3479C70.8874 54.0247 71.3766 54.4161 72.1024 54.514C73.0809 54.6444 74.2143 54.1633 74.728 53.3805C75.5027 52.2145 73.9126 49.2055 72.2328 46.9223Z" fill="#8D7A73"/>
<path d="M94.9432 59.6104H88.7949V82.6054H94.9432V59.6104Z" fill="#F4E6DC"/>
<path d="M96.1649 83.8285H87.5703V58.3872H96.1649V83.8285ZM90.0166 81.3822H93.7186V60.8335H90.0166V81.3822Z" fill="#8D7A73"/>
<path d="M91.5418 44.8916C91.5418 44.8916 87.5136 49.6782 88.859 53.739C89.7968 56.5685 93.6863 56.1934 95.097 54.0651C96.9725 51.2438 91.5336 44.8916 91.5336 44.8916H91.5418Z" fill="#F4E6DC"/>
<path d="M91.7798 56.9846C91.5596 56.9846 91.3476 56.9682 91.1274 56.9438C89.4639 56.7236 88.2163 55.6962 87.6945 54.1224C86.1533 49.4663 90.418 44.321 90.5974 44.1008L91.527 43L92.4647 44.0927C93.4758 45.2669 98.3847 51.3173 96.1178 54.734C95.2045 56.112 93.484 56.9764 91.7798 56.9764V56.9846ZM91.5922 46.9222C90.6137 48.447 89.2845 51.1053 90.0266 53.3478C90.2467 54.0246 90.736 54.416 91.4617 54.5138C92.4402 54.6443 93.5737 54.1632 94.0874 53.3804C94.8621 52.2143 93.272 49.2054 91.5922 46.9222Z" fill="#8D7A73"/>
<path d="M118.59 128H46.0334C44.3618 128 43 126.638 43 124.967V124.111C43 122.439 44.3618 121.077 46.0334 121.077H118.59C120.262 121.077 121.623 122.439 121.623 124.111V124.967C121.623 126.638 120.262 128 118.59 128ZM46.0334 123.523C45.7072 123.523 45.4463 123.793 45.4463 124.111V124.967C45.4463 125.293 45.7072 125.554 46.0334 125.554H118.59C118.916 125.554 119.177 125.293 119.177 124.967V124.111C119.177 123.784 118.916 123.523 118.59 123.523H46.0334Z" fill="#8D7A73"/>
</g>
<defs>
<clipPath id="clip0_2085_1906">
<rect width="78.6234" height="85" fill="white" transform="translate(43 43)"/>
</clipPath>
</defs>
</svg>
