<svg width="161" height="171" viewBox="0 0 161 171" fill="none" xmlns="http://www.w3.org/2000/svg">
<path fill-rule="evenodd" clip-rule="evenodd" d="M80.4719 0.0655176C102.66 -0.85837 124.539 8.03064 139.887 24.0798C154.93 39.8098 161.714 61.7789 160.258 83.4953C158.891 103.872 146.179 120.351 132.417 135.441C117.721 151.557 102.274 171.622 80.4719 170.985C58.8896 170.355 46.0294 148.441 31.4746 132.493C17.9497 117.673 1.7216 103.529 0.626257 83.4953C-0.512339 62.6707 11.3867 43.8974 25.8068 28.8301C40.6066 13.3659 59.0853 0.956048 80.4719 0.0655176Z" fill="#F4E6DC"/>
<g clip-path="url(#clip0_2085_1923)">
<path d="M91.9355 55.5115C91.7751 55.5115 91.6147 55.4751 91.4616 55.4022C90.9148 55.1397 90.6887 54.4908 90.9439 53.9439C92.6355 50.4005 92.198 46.5143 89.9815 45.4571C88.9753 44.9759 87.6921 45.1363 86.3724 45.9164C84.936 46.7622 83.6236 48.2642 82.7779 50.0432C82.5154 50.59 81.8665 50.8161 81.3196 50.5609C80.7728 50.2984 80.5468 49.6495 80.802 49.1026C81.8446 46.9153 83.4341 45.1144 85.2641 44.0353C87.2327 42.876 89.2451 42.6864 90.9293 43.4885C94.2687 45.0852 95.1655 50.2036 92.9271 54.8918C92.7376 55.2855 92.3511 55.5115 91.9428 55.5115H91.9355Z" fill="#8D7A73"/>
<path d="M91.8691 67.4982C90.2724 67.4982 88.5954 67.1409 86.9914 66.4483C86.4372 66.2077 86.182 65.566 86.4226 65.0119C86.6633 64.4578 87.3049 64.2026 87.859 64.4432C89.6672 65.2234 91.6431 65.4931 93.2836 65.1869C94.7929 64.9025 95.8647 64.1807 96.3094 63.16C97.2791 60.907 95.0553 57.6916 91.4535 56.1313C90.8994 55.8907 90.6442 55.2491 90.8848 54.695C91.1254 54.1408 91.767 53.8856 92.3212 54.1263C97.0969 56.1896 99.7873 60.6299 98.3145 64.0276C97.5781 65.741 95.9303 66.9149 93.6846 67.3378C93.1013 67.4472 92.4889 67.5055 91.8691 67.5055V67.4982Z" fill="#8D7A73"/>
<path d="M81.9903 75.8904C81.9903 75.8904 81.9466 75.8904 81.9174 75.8904C80.0509 75.8612 78.3375 74.7967 77.0834 72.8864C75.9241 71.1074 75.2971 68.7961 75.3335 66.3681C75.3408 65.763 75.8148 65.2964 76.4418 65.2891C77.047 65.2964 77.5282 65.7922 77.5209 66.3973C77.4917 68.3659 78.0021 70.2908 78.9135 71.6907C79.752 72.9739 80.831 73.6884 81.9466 73.703C84.4329 73.7249 86.5181 70.4512 86.5765 66.5286C86.5837 65.9307 87.0723 65.4495 87.6701 65.4495H87.6847C88.2899 65.4568 88.7711 65.9526 88.7638 66.5577C88.6909 71.7271 85.6578 75.8904 81.983 75.8904H81.9903Z" fill="#8D7A73"/>
<path d="M71.7745 68.4535C70.9506 68.4535 70.1558 68.366 69.3976 68.1764C67.181 67.6368 65.5989 66.3755 64.95 64.6256C64.3011 62.8757 64.6729 60.8926 66.0072 59.0333C67.2467 57.3053 69.1788 55.8908 71.4537 55.0451C72.0224 54.8336 72.6494 55.1253 72.8608 55.6867C73.0723 56.2554 72.7806 56.8824 72.2192 57.0939C70.3746 57.7792 68.7559 58.9458 67.7862 60.302C66.8967 61.5488 66.6123 62.8101 67.0061 63.86C67.3925 64.91 68.4278 65.6828 69.9225 66.0474C71.5411 66.4411 73.5316 66.2734 75.3763 65.588C75.9377 65.3839 76.572 65.6682 76.7835 66.2297C76.9949 66.7984 76.7033 67.4254 76.1418 67.6368C74.6982 68.1691 73.2108 68.4462 71.789 68.4462L71.7745 68.4535Z" fill="#8D7A73"/>
<path d="M71.8413 55.8616C71.4768 55.8616 71.1122 55.6793 70.908 55.3367C69.6394 53.266 68.9905 50.9547 69.0853 48.833C69.1873 46.5508 70.1133 44.7572 71.7101 43.7875C74.8671 41.8554 79.6428 43.8896 82.3624 48.3226C82.6759 48.8403 82.5155 49.511 81.9979 49.8246C81.4875 50.1381 80.8094 49.9777 80.4959 49.46C78.4471 46.1134 74.94 44.3635 72.8548 45.6467C71.8996 46.23 71.3382 47.3966 71.2726 48.9277C71.1997 50.5974 71.7465 52.515 72.7746 54.1919C73.0881 54.7096 72.9277 55.3804 72.41 55.6939C72.235 55.8033 72.0382 55.8543 71.8413 55.8543V55.8616Z" fill="#8D7A73"/>
<path d="M81.9101 64.691C81.0206 64.691 80.1383 64.4941 79.3144 64.1004C77.8562 63.4077 76.7625 62.1828 76.223 60.6662C75.6835 59.1497 75.771 57.5092 76.4636 56.051C77.1563 54.5927 78.3812 53.4991 79.8977 52.9595C83.0402 51.8513 86.4962 53.4991 87.6045 56.6415C88.144 58.1654 88.0565 59.7986 87.3638 61.2568C86.6712 62.7151 85.4463 63.8087 83.9297 64.3483C83.2735 64.5816 82.5882 64.6982 81.9101 64.6982V64.691ZM81.9101 54.7969C81.4872 54.7969 81.057 54.8698 80.6341 55.0156C79.6644 55.3583 78.8843 56.0583 78.4395 56.9842C77.9947 57.9102 77.9437 58.9601 78.2864 59.9298C78.6291 60.8996 79.329 61.6797 80.255 62.1245C81.181 62.5692 82.2309 62.6203 83.2006 62.2776C85.2057 61.5704 86.2556 59.3611 85.5484 57.3634C84.9869 55.7812 83.4996 54.7969 81.9101 54.7969Z" fill="#8D7A73"/>
<path d="M75.3778 87.9059C75.1591 87.9059 74.9403 87.8403 74.7508 87.709C74.255 87.3591 74.1383 86.681 74.481 86.1852C75.6111 84.5739 76.2746 82.6927 76.3038 81.0231C76.3329 79.4919 75.8371 78.2962 74.9257 77.6546C74.0071 77.013 72.7165 76.9619 71.2875 77.516C69.7345 78.1139 68.1887 79.3826 67.0659 80.9939C66.7159 81.4897 66.0379 81.6064 65.5421 81.2637C65.0463 80.921 64.9296 80.2356 65.2723 79.7398C66.6649 77.7494 68.5241 76.2328 70.5 75.4745C72.629 74.6579 74.6487 74.7892 76.1798 75.861C77.711 76.9328 78.5276 78.7774 78.4911 81.0595C78.4547 83.1813 77.6672 85.4488 76.2746 87.4393C76.0632 87.7455 75.7205 87.9059 75.3778 87.9059Z" fill="#8D7A73"/>
<path d="M74.8015 99.8416C72.7308 99.8416 70.5143 99.1417 68.5384 97.873C68.0281 97.5449 67.8822 96.8668 68.2103 96.3637C68.5384 95.8534 69.2165 95.7075 69.7196 96.0356C71.3747 97.1001 73.2777 97.6907 74.9474 97.6543C76.4785 97.6251 77.6597 97.0856 78.2648 96.1523C78.87 95.219 78.87 93.9212 78.2648 92.514C77.6086 90.9829 76.2816 89.4882 74.6265 88.4237C74.1162 88.0956 73.9703 87.4175 74.2984 86.9144C74.6265 86.404 75.3046 86.2582 75.8077 86.5863C77.8492 87.8987 79.4314 89.6996 80.2699 91.6537C81.1667 93.7535 81.1084 95.7731 80.0949 97.3407C79.0814 98.9083 77.2732 99.7979 74.9911 99.8489C74.9255 99.8489 74.8672 99.8489 74.8015 99.8489V99.8416Z" fill="#8D7A73"/>
<path d="M62.8655 106.433C62.5738 106.433 62.2749 106.403 61.9832 106.352C60.1459 106.017 58.6293 104.69 57.7106 102.597C56.8576 100.651 56.6243 98.2666 57.0544 95.8751C57.1638 95.2772 57.7325 94.8835 58.3231 94.9928C58.9137 95.1022 59.3147 95.6709 59.2053 96.2615C58.8554 98.2009 59.0376 100.184 59.7084 101.708C60.3282 103.108 61.2687 103.99 62.3697 104.194C63.4633 104.398 64.6664 103.895 65.7309 102.802C66.8975 101.606 67.7651 99.8123 68.1151 97.8728C68.2245 97.275 68.8005 96.8813 69.3837 96.9906C69.9816 97.1 70.3753 97.6687 70.266 98.2593C69.8358 100.651 68.7786 102.802 67.2985 104.325C65.9569 105.696 64.4112 106.425 62.8655 106.425V106.433Z" fill="#8D7A73"/>
<path d="M55.1439 97.516C53.6274 97.516 52.1692 97.2389 50.9005 96.6994C48.8006 95.8026 47.4445 94.3006 47.0945 92.4705C46.7445 90.6404 47.4372 88.7375 49.0558 87.1261C50.5578 85.6241 52.7014 84.5451 55.0856 84.0857C55.6689 83.9691 56.2522 84.3555 56.3688 84.9534C56.4855 85.5439 56.0918 86.1199 55.5012 86.2366C53.569 86.6084 51.7827 87.498 50.6016 88.6791C49.5152 89.7655 49.034 90.9612 49.2454 92.0549C49.4569 93.1486 50.3537 94.0891 51.7608 94.687C53.2993 95.3432 55.2825 95.5036 57.2146 95.1318C57.8052 95.0151 58.3812 95.4015 58.4979 95.9994C58.6145 96.59 58.2208 97.166 57.6302 97.2827C56.799 97.4431 55.9605 97.5233 55.1512 97.5233L55.1439 97.516Z" fill="#8D7A73"/>
<path d="M55.5011 84.953C55.0709 84.953 54.6553 84.6978 54.4876 84.2677C53.5762 82.0147 53.3137 79.6305 53.7585 77.5525C54.2324 75.3215 55.4427 73.7028 57.1707 73.0029C58.8987 72.3029 60.8965 72.6164 62.7922 73.8924C64.5567 75.0808 66.0222 76.9693 66.9336 79.2222C67.1596 79.7836 66.8898 80.418 66.3284 80.644C65.767 80.87 65.1327 80.6002 64.9066 80.0388C64.1702 78.216 62.9526 76.6339 61.5673 75.7006C60.2986 74.8475 59.0227 74.5996 57.9873 75.0225C56.952 75.4381 56.2083 76.4953 55.8875 77.9973C55.5448 79.6305 55.7708 81.6137 56.5073 83.4365C56.7333 83.9979 56.4635 84.6322 55.9021 84.8583C55.7708 84.9093 55.625 84.9385 55.4938 84.9385L55.5011 84.953Z" fill="#8D7A73"/>
<path d="M64.7977 95.3794C61.925 95.3794 59.3731 93.316 58.8555 90.3922C58.2795 87.1112 60.4741 83.976 63.7478 83.3927C67.0288 82.8095 70.164 85.0041 70.7473 88.2851C71.3233 91.5661 69.1287 94.7013 65.855 95.2846C65.4977 95.3429 65.1477 95.3794 64.7977 95.3794ZM64.7977 85.4853C64.579 85.4853 64.353 85.5072 64.127 85.5436C62.0344 85.9155 60.6345 87.9132 61.0064 90.0058C61.3782 92.0984 63.3687 93.5055 65.4685 93.1264C67.5611 92.7546 68.961 90.7568 68.5891 88.6642C68.261 86.7977 66.6278 85.4853 64.7977 85.4853Z" fill="#8D7A73"/>
<path d="M110.578 89.707C110.265 89.707 109.958 89.5757 109.74 89.3205C109.346 88.8612 109.404 88.1686 109.871 87.7821C111.373 86.5135 112.496 84.8657 112.948 83.2543C113.363 81.7815 113.196 80.4983 112.474 79.6452C110.892 77.7714 107.013 78.3328 104.016 80.8628C103.557 81.2566 102.864 81.1982 102.478 80.7316C102.084 80.2723 102.142 79.5796 102.609 79.1932C106.575 75.832 111.752 75.4018 114.144 78.2307C115.347 79.6598 115.667 81.6503 115.048 83.8449C114.472 85.8864 113.13 87.8769 111.278 89.4445C111.074 89.6195 110.819 89.6997 110.571 89.6997L110.578 89.707Z" fill="#8D7A73"/>
<path d="M108.742 101.343C108.144 101.343 107.524 101.263 106.875 101.11C104.812 100.607 102.77 99.3457 101.137 97.552C100.729 97.1073 100.758 96.4146 101.21 96.0063C101.655 95.598 102.347 95.6272 102.756 96.0792C104.083 97.5302 105.774 98.5947 107.393 98.9811C108.88 99.3457 110.156 99.1269 110.98 98.3759C111.804 97.6249 112.132 96.3709 111.913 94.8543C111.673 93.2065 110.769 91.4275 109.442 89.9693C109.033 89.5245 109.062 88.8318 109.514 88.4235C109.959 88.0152 110.652 88.0444 111.06 88.4965C112.701 90.2901 113.772 92.4337 114.079 94.5335C114.414 96.7938 113.838 98.7259 112.46 99.9873C111.483 100.877 110.2 101.336 108.749 101.343H108.742Z" fill="#8D7A73"/>
<path d="M94.7487 104.544C94.0123 104.544 93.2978 104.399 92.627 104.085C89.2731 102.518 88.3325 97.4065 90.5417 92.6964C90.7969 92.1496 91.4458 91.909 91.9927 92.1714C92.5395 92.4266 92.7728 93.0755 92.5176 93.6224C90.8553 97.1804 91.3292 101.059 93.553 102.102C95.7768 103.137 99.0578 101.016 100.72 97.4575C100.975 96.9107 101.624 96.6701 102.171 96.9326C102.718 97.1877 102.951 97.8367 102.696 98.3835C100.932 102.153 97.687 104.544 94.7414 104.544H94.7487Z" fill="#8D7A73"/>
<path d="M85.5997 92.5285C85.3955 92.5285 85.1841 92.4702 85.0018 92.3462C82.8217 90.9172 81.6479 88.9121 81.7864 86.8487C81.9104 84.9895 83.0696 83.3271 85.0455 82.1824C86.8829 81.1179 89.2306 80.6221 91.6513 80.7825C92.2565 80.8262 92.7085 81.3439 92.6648 81.9491C92.621 82.5542 92.0888 83.0136 91.4982 82.9625C89.5296 82.8313 87.5829 83.2323 86.1392 84.0708C84.8122 84.8437 84.0394 85.879 83.9665 86.9945C83.879 88.2486 84.6956 89.5319 86.1975 90.5162C86.7006 90.8443 86.8464 91.5223 86.5111 92.0327C86.2996 92.3535 85.9496 92.5285 85.5924 92.5285H85.5997Z" fill="#8D7A73"/>
<path d="M90.8133 94.1912C90.8133 94.1912 90.7623 94.1912 90.7404 94.1912C88.6333 94.0453 86.5918 93.3964 85.0023 92.3538C84.4992 92.0257 84.3534 91.3476 84.6888 90.8372C85.0242 90.3342 85.7022 90.1883 86.2053 90.5237C87.4886 91.3622 89.1582 91.8945 90.8935 92.0111C91.4987 92.0549 91.9507 92.5725 91.907 93.1777C91.8705 93.7537 91.3893 94.1985 90.8206 94.1985L90.8133 94.1912Z" fill="#8D7A73"/>
<path d="M92.117 81.7741C91.5775 81.7741 91.1036 81.3731 91.0307 80.8189C90.7244 78.4129 91.0817 76.036 92.0368 74.1403C93.0649 72.0988 94.6471 70.852 96.499 70.6114C98.3509 70.378 100.203 71.1947 101.705 72.9081C103.105 74.5048 104.045 76.714 104.352 79.1201C104.424 79.718 104.002 80.2648 103.404 80.345C102.82 80.4252 102.259 79.995 102.179 79.3972C101.931 77.4432 101.158 75.6058 100.057 74.3517C99.0436 73.1997 97.877 72.6456 96.7761 72.7841C95.6678 72.9227 94.6762 73.7538 93.9908 75.1246C93.2399 76.612 92.9482 78.5879 93.2034 80.5419C93.2763 81.1398 92.8534 81.6866 92.2556 81.7668C92.2118 81.7668 92.1608 81.7741 92.117 81.7741Z" fill="#8D7A73"/>
<path d="M99.7228 94.3952C99.5551 94.3952 99.3801 94.3952 99.2124 94.3733C95.8949 94.0962 93.416 91.1725 93.693 87.8477C93.8243 86.2364 94.5825 84.7782 95.8147 83.7428C97.0469 82.7002 98.6145 82.2044 100.219 82.3356C101.83 82.4669 103.288 83.2252 104.323 84.4574C105.359 85.6896 105.862 87.2499 105.731 88.8612C105.599 90.4725 104.841 91.9308 103.609 92.9661C102.508 93.8994 101.145 94.3952 99.7155 94.3952H99.7228ZM99.7082 84.5011C98.7968 84.5011 97.9292 84.8219 97.2292 85.4125C96.4418 86.076 95.9606 87.0092 95.8804 88.03C95.7054 90.1444 97.2803 92.011 99.402 92.1932C100.43 92.2807 101.422 91.9599 102.209 91.2964C102.996 90.6329 103.478 89.6997 103.558 88.6789C103.645 87.6509 103.325 86.6593 102.661 85.8718C101.998 85.0844 101.064 84.6032 100.044 84.523C99.9342 84.5157 99.8249 84.5084 99.7155 84.5084L99.7082 84.5011Z" fill="#8D7A73"/>
<path d="M84.9717 120.301C84.6363 120.301 84.3082 120.148 84.0967 119.863L68.3187 98.7263C67.9542 98.2451 68.0563 97.5598 68.5375 97.1952C69.026 96.8307 69.7041 96.9327 70.0686 97.4139L85.8466 118.551C86.2112 119.032 86.1091 119.718 85.6279 120.082C85.431 120.228 85.205 120.301 84.9717 120.301Z" fill="#8D7A73"/>
<path d="M90.3391 120.024C90.3027 120.024 90.2662 120.024 90.2225 120.024C89.6246 119.958 89.1871 119.426 89.2455 118.821L90.9297 102.62C90.988 102.022 91.5349 101.592 92.1327 101.643C92.7306 101.708 93.1681 102.241 93.1098 102.846L91.4255 119.047C91.3672 119.608 90.8932 120.024 90.3391 120.024Z" fill="#8D7A73"/>
<path d="M89.0707 128C88.5239 128 88.0499 127.592 87.9843 127.03L83.9304 91.4351C83.8648 90.8372 84.295 90.2904 84.8929 90.2247C85.4907 90.1518 86.0376 90.5893 86.1032 91.1872L90.1571 126.782C90.2227 127.38 89.7925 127.927 89.1946 127.993C89.1509 127.993 89.1071 127.993 89.0707 127.993V128Z" fill="#8D7A73"/>
<path d="M83.1643 85.179C82.6539 85.179 82.1946 84.8218 82.0925 84.2968L80.2552 75.0881C80.1385 74.4975 80.5249 73.9215 81.1155 73.8049C81.7061 73.6809 82.2821 74.0674 82.3987 74.6652L84.2361 83.8739C84.3528 84.4645 83.9663 85.0405 83.3758 85.1572C83.3028 85.1718 83.2299 85.179 83.157 85.179H83.1643Z" fill="#8D7A73"/>
</g>
<defs>
<clipPath id="clip0_2085_1923">
<rect width="68.3689" height="85" fill="white" transform="translate(47 43)"/>
</clipPath>
</defs>
</svg>
