<svg width="147" height="171" viewBox="0 0 147 171" fill="none" xmlns="http://www.w3.org/2000/svg">
<path fill-rule="evenodd" clip-rule="evenodd" d="M73.3599 0.00347229C94.8719 0.263223 112.701 15.6175 126.48 32.1391C138.927 47.0634 142.958 65.8842 144.465 85.2594C146.152 106.933 149.365 130.646 135.444 147.344C120.737 164.986 96.1908 173.058 73.3599 170.554C52.2938 168.243 37.2514 151.237 23.548 135.071C11.3017 120.625 1.89363 104.18 1.05738 85.2594C0.180905 65.4293 6.10259 45.9791 18.9411 30.8406C32.9599 14.3101 51.687 -0.258221 73.3599 0.00347229Z" fill="#F4E6DC"/>
<g clip-path="url(#clip0_2085_1963)">
<path d="M108.824 118.649H38.1759C34.2178 118.649 31 115.432 31 111.473V61.1759C31 57.2178 34.2178 54 38.1759 54H108.824C112.782 54 116 57.2178 116 61.1759V111.473C116 115.432 112.782 118.649 108.824 118.649ZM38.1759 56.8476C35.7934 56.8476 33.8476 58.7934 33.8476 61.1759V111.473C33.8476 113.856 35.7934 115.802 38.1759 115.802H108.824C111.207 115.802 113.152 113.856 113.152 111.473V61.1759C113.152 58.7934 111.207 56.8476 108.824 56.8476H38.1759Z" fill="#8D7A73"/>
<path d="M73.2381 91.4932C72.8963 91.4932 72.5546 91.3698 72.2794 91.1231L35.5457 57.5977C34.9667 57.0661 34.9192 56.1644 35.4508 55.5854C35.9823 55.0064 36.8841 54.9684 37.4631 55.4905L73.2286 88.1331L109.526 54.3799C110.105 53.8484 110.997 53.8768 111.538 54.4558C112.069 55.0348 112.041 55.9366 111.462 56.4681L74.2062 91.1136C73.931 91.3698 73.5893 91.4932 73.2381 91.4932Z" fill="#8D7A73"/>
<path d="M60.5776 78.005C67.4687 72.8983 74.0276 84.7632 74.0276 84.7632C74.0276 84.7632 81.232 71.0854 89.7462 78.7074C97.7099 85.8358 74.1795 103.757 74.1795 103.757C74.1795 103.757 49.8138 85.9877 60.5871 78.005H60.5776Z" fill="#F4E6DC"/>
<path d="M74.1886 105.531L73.3343 104.905C72.6414 104.402 56.4387 92.4801 56.4102 83.1685C56.4007 80.6247 57.5208 78.4985 59.7324 76.8564C61.5928 75.4801 63.6051 75.0055 65.7028 75.4706C69.3762 76.2679 72.3946 79.7989 74.0082 82.0864C75.6693 79.666 78.8776 75.8408 83.0065 75.1004C85.6832 74.6163 88.2745 75.4801 90.695 77.6442C92.1757 78.9731 92.8876 80.6721 92.8117 82.6939C92.47 91.379 76.8273 103.538 75.0428 104.886L74.198 105.531H74.1886ZM61.4219 79.1534C59.9507 80.245 59.2388 81.5549 59.2483 83.1685C59.2768 89.3193 69.3192 98.2701 74.1506 101.972C79.1623 97.9949 89.7173 88.4555 89.9546 82.5895C90.0021 81.422 89.6319 80.5298 88.7871 79.7799C87.0311 78.2043 85.3036 77.5968 83.5001 77.91C78.8681 78.7358 75.3181 85.3706 75.2801 85.4371L74.0557 87.7626L72.7838 85.4656C71.8156 83.719 68.5314 79.0111 65.0953 78.2707C63.8139 77.9954 62.6179 78.2897 61.4314 79.1629L61.4219 79.1534Z" fill="#8D7A73"/>
</g>
<defs>
<clipPath id="clip0_2085_1963">
<rect width="85" height="64.6494" fill="white" transform="translate(31 54)"/>
</clipPath>
</defs>
</svg>
