<svg width="153" height="171" viewBox="0 0 153 171" fill="none" xmlns="http://www.w3.org/2000/svg">
<path fill-rule="evenodd" clip-rule="evenodd" d="M75.4464 0.00781301C99.0291 0.468841 115.149 22.3904 130.003 40.7126C142.896 56.6157 152.651 74.7964 152.678 95.2693C152.705 115.769 144.785 135.618 130.147 149.97C115.647 164.187 95.7519 171.231 75.4464 170.994C55.3835 170.761 36.1309 162.96 22.004 148.712C7.93665 134.524 0.960614 115.24 0.364272 95.2693C-0.252434 74.6167 5.92415 54.7643 18.714 38.537C33.4243 19.8731 51.6868 -0.456671 75.4464 0.00781301Z" fill="#F4E6DC"/>
<g clip-path="url(#clip0_2085_1972)">
<path d="M81.9742 128H69.6214C69.049 128 68.5869 127.538 68.5869 126.966V117.903H50.0336C49.6336 117.903 49.268 117.675 49.0956 117.31C48.9232 116.944 48.9784 116.517 49.2336 116.213L63.4761 98.9082H56.1169C55.7168 98.9082 55.3582 98.6806 55.1858 98.322C55.0133 97.9633 55.0616 97.5426 55.3099 97.2322L67.5592 81.831H61.8001C61.4139 81.831 61.0621 81.6172 60.8828 81.2723C60.7035 80.9275 60.731 80.5136 60.9518 80.2033L76.0081 58.7463C76.3944 58.1946 77.3117 58.1946 77.7048 58.7463L92.7612 80.2033C92.9819 80.5205 93.0095 80.9344 92.8302 81.2723C92.6509 81.6172 92.2991 81.831 91.9129 81.831H86.1538L98.4031 97.2322C98.6514 97.5426 98.6996 97.9702 98.5272 98.322C98.3548 98.6806 97.9961 98.9082 97.5961 98.9082H90.2369L104.479 116.213C104.735 116.523 104.79 116.951 104.617 117.31C104.445 117.668 104.079 117.903 103.679 117.903H83.0087V126.966C83.0087 127.538 82.5466 128 81.9742 128ZM70.656 125.931H80.9396V116.868C80.9396 116.296 81.4017 115.834 81.9742 115.834H101.486L87.2435 98.5289C86.9883 98.2185 86.9332 97.7909 87.1056 97.4322C87.278 97.0736 87.6436 96.8391 88.0436 96.8391H95.4511L83.2018 81.4378C82.9535 81.1275 82.9053 80.6999 83.0777 80.3481C83.2501 79.9895 83.6088 79.7618 84.0088 79.7618H89.9196L76.8565 61.1396L63.7934 79.7618H69.7042C70.1042 79.7618 70.4629 79.9895 70.6353 80.3481C70.8077 80.7068 70.7594 81.1275 70.5111 81.4378L58.2619 96.8391H65.6625C66.0625 96.8391 66.4281 97.0667 66.6005 97.4322C66.7729 97.7978 66.7177 98.2254 66.4625 98.5289L52.22 115.834H69.6145C70.187 115.834 70.6491 116.296 70.6491 116.868V125.931H70.656Z" fill="#8D7A73"/>
<path d="M71.8633 60.429C71.6495 60.429 71.4357 60.36 71.2564 60.229C70.9391 59.9945 70.7804 59.6082 70.8425 59.2151L71.7047 54.194L68.0561 50.642C67.7733 50.3661 67.6699 49.9523 67.794 49.5798C67.9181 49.2074 68.2423 48.9315 68.6285 48.8763L73.6703 48.1452L75.9257 43.5794C76.0981 43.2276 76.4568 43 76.8499 43C77.243 43 77.6017 43.2207 77.7741 43.5794L80.0295 48.1452L85.0713 48.8763C85.4644 48.9315 85.7817 49.2074 85.9058 49.5798C86.03 49.9523 85.9265 50.3661 85.6437 50.642L81.9952 54.194L82.8573 59.2151C82.9263 59.6013 82.7676 59.9945 82.4435 60.229C82.1262 60.4635 81.7055 60.4911 81.3537 60.3049L76.843 57.9322L72.3323 60.3049C72.1806 60.3876 72.015 60.4221 71.8495 60.4221L71.8633 60.429ZM71.0012 50.6282L73.5393 53.0974C73.7807 53.3319 73.891 53.6767 73.8359 54.0147L73.2358 57.5046L76.3671 55.8562C76.6706 55.6976 77.0292 55.6976 77.3327 55.8562L80.464 57.5046L79.8639 54.0147C79.8088 53.6767 79.9191 53.3388 80.1605 53.0974L82.6987 50.6282L79.1949 50.1178C78.857 50.0695 78.5673 49.8557 78.4156 49.5523L76.8499 46.3796L75.2843 49.5523C75.1325 49.8557 74.8428 50.0695 74.5049 50.1178L71.0012 50.6282Z" fill="#8D7A73"/>
<path d="M82.4717 101.715C82.2786 101.715 82.0855 101.66 81.913 101.55L78.0162 99.0528L72.6157 101.612C72.3467 101.743 72.0364 101.743 71.7605 101.625L65.2565 98.8183C64.7323 98.5907 64.4909 97.9838 64.7185 97.4596C64.9461 96.9354 65.5531 96.694 66.0773 96.9216L72.1536 99.5425L77.6506 96.9354C77.9748 96.7837 78.3541 96.8044 78.6507 96.9975L82.5338 99.4873L87.6169 96.9423C88.1273 96.6871 88.7481 96.894 89.0033 97.4044C89.2584 97.9148 89.0515 98.5355 88.5412 98.7907L82.9338 101.598C82.789 101.674 82.6303 101.708 82.4717 101.708V101.715Z" fill="#8D7A73"/>
<path d="M76.9877 84.6101C76.8635 84.6101 76.7394 84.5894 76.6221 84.5411L69.256 81.734C68.725 81.534 68.456 80.9339 68.656 80.3959C68.856 79.8649 69.456 79.5959 69.994 79.7959L76.9739 82.4513L83.2985 79.8028C83.8296 79.5821 84.4297 79.8304 84.6504 80.3546C84.8711 80.8787 84.6228 81.4857 84.0986 81.7064L77.3946 84.5135C77.2636 84.5687 77.1325 84.5963 76.9946 84.5963L76.9877 84.6101Z" fill="#8D7A73"/>
<path d="M76.0777 120.786C75.9329 120.786 75.7949 120.758 75.6639 120.696L69.2703 117.889C68.7461 117.661 68.5116 117.047 68.7392 116.523C68.9668 115.999 69.5806 115.758 70.1048 115.992L76.0639 118.606L81.4575 116.006C81.9748 115.758 82.5886 115.971 82.8369 116.489C83.0852 117.006 82.8714 117.62 82.3541 117.868L76.5329 120.675C76.3881 120.744 76.2364 120.779 76.0846 120.779L76.0777 120.786Z" fill="#8D7A73"/>
</g>
<defs>
<clipPath id="clip0_2085_1972">
<rect width="55.7149" height="85" fill="white" transform="translate(49 43)"/>
</clipPath>
</defs>
</svg>
