<svg width="179" height="171" viewBox="0 0 179 171" fill="none" xmlns="http://www.w3.org/2000/svg">
<path fill-rule="evenodd" clip-rule="evenodd" d="M95.9198 4.38412C119.148 5.68494 145.885 0.12675 161.852 17.0472C177.654 33.793 168.679 59.9982 170.086 82.9796C171.665 108.759 187.406 138.027 170.454 157.514C153.328 177.2 121.949 170.061 95.9198 168.235C72.4394 166.588 48.6518 163.49 31.1582 147.741C12.7836 131.2 2.81971 107.651 1.21784 82.9796C-0.503574 56.4669 1.71988 26.1921 22.1646 9.22446C41.8739 -7.13276 70.3471 2.95201 95.9198 4.38412Z" fill="#F4E6DC"/>
<g clip-path="url(#clip0_2085_1982)">
<path d="M73.4559 67.9073C73.0094 67.9073 72.5936 67.6532 72.4011 67.2221C71.7082 65.6591 70.561 63.5495 69.0212 62.3715C68.1203 61.6863 67.2426 61.4399 66.3957 61.6324C65.2485 61.9019 64.1398 63.0106 63.2775 64.7429C62.9926 65.3126 62.2997 65.5436 61.7299 65.2664C61.1602 64.9816 60.9215 64.2886 61.2064 63.7189C62.3921 61.3167 64.0089 59.8154 65.8645 59.3842C67.3889 59.03 68.9673 59.4227 70.4147 60.5314C72.3395 62.0019 73.7023 64.4657 74.503 66.2827C74.7571 66.8679 74.503 67.5454 73.9179 67.8072C73.7639 67.8765 73.6099 67.9073 73.4482 67.9073H73.4559Z" fill="#8D7A73"/>
<path d="M72.8018 101.422C72.4092 101.422 72.0242 101.383 71.6392 101.299C68.906 100.714 66.858 98.1112 65.8571 93.9767C64.9332 90.1271 65.0025 85.3227 66.0496 80.4414L67.9898 71.4486C68.1207 70.825 68.7443 70.4323 69.3603 70.5632L86.3757 74.2358C86.6759 74.2974 86.9377 74.4822 87.0994 74.7362C87.2688 74.9903 87.3227 75.306 87.2611 75.6063L85.3209 84.599C84.2661 89.4804 82.3489 93.8843 79.916 97.0102C77.6678 99.8898 75.1809 101.422 72.7941 101.422H72.8018ZM70.007 73.0655L68.3055 80.9265C67.3276 85.4767 67.2507 89.9115 68.0976 93.4301C68.8675 96.6099 70.3304 98.6502 72.1166 99.0429C73.9105 99.4278 76.0817 98.1728 78.0912 95.5936C80.3163 92.7371 82.0795 88.6642 83.0573 84.114L84.7511 76.2453L69.9916 73.0578L70.007 73.0655Z" fill="#8D7A73"/>
<path d="M66.9812 121.964C66.8965 121.964 66.8195 121.956 66.7348 121.94C66.1111 121.81 65.7185 121.194 65.8494 120.57L70.3226 99.8359C70.4535 99.2122 71.0772 98.8196 71.6931 98.9504C72.3168 99.0813 72.7094 99.6973 72.5785 100.321L68.1053 121.055C67.9898 121.594 67.5124 121.964 66.9812 121.964Z" fill="#8D7A73"/>
<path d="M74.4032 128C74.2569 128 74.1029 128 73.9566 128C71.6776 127.962 68.7288 127.569 65.6645 126.907C61.9535 126.106 53.3919 123.92 54.0386 120.901C54.3928 119.269 56.7796 119.1 58.8122 119.131C61.0911 119.169 64.04 119.554 67.1043 120.224C70.8153 121.025 79.3769 123.211 78.7302 126.229C78.4068 127.746 76.328 128 74.4032 128ZM56.895 121.517C58.1731 122.31 61.2605 123.596 66.1573 124.651C71.054 125.706 74.3955 125.814 75.8815 125.613C74.6034 124.82 71.516 123.535 66.6192 122.48C61.7225 121.425 58.381 121.317 56.895 121.517Z" fill="#8D7A73"/>
<path d="M85.0747 81.1117C85.0747 81.1117 85.0131 81.1117 84.9823 81.1117L67.6281 79.7566C66.9891 79.7104 66.5194 79.1483 66.5656 78.517C66.6118 77.878 67.1739 77.3929 67.8052 77.4545L85.1594 78.8096C85.7984 78.8558 86.2681 79.4178 86.2219 80.0492C86.1757 80.6574 85.6675 81.1117 85.0747 81.1117Z" fill="#8D7A73"/>
<path d="M89.9472 70.5789C89.7008 70.5789 89.4544 70.5019 89.2465 70.3402C88.7384 69.9553 88.6383 69.2315 89.0233 68.7234L92.8498 63.6958C93.2348 63.1876 93.9585 63.0875 94.4666 63.4725C94.9748 63.8574 95.0749 64.5812 94.6899 65.0893L90.8634 70.117C90.6401 70.4172 90.2936 70.5712 89.9472 70.5712V70.5789Z" fill="#8D7A73"/>
<path d="M83.6045 70.4093C83.2889 70.4093 82.9809 70.2784 82.7499 70.0321L78.4999 65.3586C78.0688 64.8889 78.1073 64.1575 78.5769 63.7264C79.0466 63.3029 79.778 63.3337 80.2092 63.8033L84.4592 68.4768C84.8903 68.9465 84.8518 69.6779 84.3822 70.1091C84.1589 70.3092 83.8817 70.4093 83.6045 70.4093Z" fill="#8D7A73"/>
<path d="M104.276 98.8506C102.112 98.8506 99.7331 97.6649 97.4002 95.3859C94.5669 92.6219 92.0723 88.5181 90.3631 83.8216L87.2218 75.1753C87.114 74.8904 87.1294 74.5671 87.2603 74.2899C87.3912 74.0127 87.6221 73.7971 87.9147 73.6893L104.276 67.7455C104.876 67.5299 105.538 67.8379 105.754 68.4384L108.895 77.0847C112.576 87.2093 111.382 96.6178 106.185 98.5118C105.569 98.7351 104.93 98.8429 104.268 98.8429L104.276 98.8506ZM89.7856 75.4756L92.5343 83.0363C94.1203 87.4094 96.4224 91.2129 99.0094 93.7306C101.35 96.0172 103.675 96.972 105.4 96.3406C108.826 95.0933 110.181 87.3787 106.724 77.8777L103.975 70.3171L89.7856 75.4679V75.4756Z" fill="#8D7A73"/>
<path d="M113.446 118.376C112.977 118.376 112.53 118.083 112.361 117.614L105.116 97.6803C104.9 97.0798 105.208 96.4176 105.809 96.202C106.409 95.9865 107.071 96.2944 107.287 96.895L114.532 116.828C114.747 117.429 114.439 118.091 113.839 118.307C113.708 118.353 113.577 118.376 113.446 118.376Z" fill="#8D7A73"/>
<path d="M105.308 125.498C104.022 125.498 102.906 125.197 102.536 124.189C101.482 121.286 109.674 117.96 113.238 116.659C116.187 115.589 119.051 114.803 121.307 114.457C123.317 114.141 125.703 113.987 126.273 115.565C127.328 118.468 119.136 121.794 115.571 123.095C112.622 124.166 109.758 124.951 107.502 125.297C106.786 125.405 106.016 125.498 105.3 125.498H105.308ZM123.54 116.559C122.039 116.559 118.743 117.121 114.031 118.83C109.319 120.539 106.44 122.225 105.285 123.188C106.786 123.188 110.082 122.626 114.794 120.916C119.506 119.207 122.385 117.521 123.54 116.559Z" fill="#8D7A73"/>
<path d="M89.9484 80.1489C89.4094 80.1489 88.9244 79.7639 88.8166 79.2096C88.6934 78.586 89.1091 77.9777 89.7328 77.8545L106.825 74.5592C107.449 74.436 108.057 74.8518 108.18 75.4755C108.303 76.0991 107.888 76.7073 107.264 76.8305L90.1716 80.1258C90.0946 80.1412 90.0253 80.1489 89.9484 80.1489Z" fill="#8D7A73"/>
<path d="M86.1451 67.1295C85.5061 67.1295 84.9902 66.6137 84.9902 65.9747V58.6988C84.9902 58.0598 85.5061 57.5439 86.1451 57.5439C86.7842 57.5439 87.3 58.0598 87.3 58.6988V65.9747C87.3 66.6137 86.7842 67.1295 86.1451 67.1295Z" fill="#8D7A73"/>
<path d="M106.502 53.7406C105.986 53.7406 105.524 53.3941 105.386 52.8783L104.323 48.8285C104.161 48.2125 104.531 47.5812 105.147 47.4195C105.763 47.2501 106.394 47.6274 106.556 48.2433L107.618 52.2931C107.78 52.9091 107.411 53.5404 106.795 53.7021C106.695 53.7252 106.594 53.7406 106.502 53.7406Z" fill="#8D7A73"/>
<path d="M108.649 61.8942C108.133 61.8942 107.671 61.5478 107.532 61.0319L106.47 56.9821C106.308 56.3662 106.677 55.7348 107.293 55.5731C107.909 55.4114 108.541 55.781 108.702 56.397L109.765 60.4468C109.927 61.0627 109.557 61.6941 108.941 61.8557C108.841 61.8788 108.741 61.8942 108.649 61.8942Z" fill="#8D7A73"/>
<path d="M109.219 55.2264C108.703 55.2264 108.241 54.8799 108.102 54.3641C107.941 53.7481 108.31 53.1168 108.926 52.9551L113.215 51.8233C113.831 51.6539 114.462 52.0312 114.624 52.6471C114.785 53.2631 114.416 53.8944 113.8 54.0561L109.511 55.1879C109.411 55.211 109.311 55.2264 109.219 55.2264Z" fill="#8D7A73"/>
<path d="M100.58 57.4979C100.064 57.4979 99.6023 57.1514 99.4638 56.6356C99.3021 56.0196 99.6716 55.3883 100.288 55.2266L104.576 54.0948C105.192 53.9254 105.823 54.3027 105.985 54.9186C106.147 55.5346 105.777 56.1659 105.161 56.3276L100.873 57.4594C100.773 57.4825 100.673 57.4979 100.58 57.4979Z" fill="#8D7A73"/>
<path d="M75.7809 56.3659C73.8637 56.3659 72.3008 54.803 72.3008 52.8858C72.3008 50.9687 73.8637 49.4058 75.7809 49.4058C77.698 49.4058 79.2609 50.9687 79.2609 52.8858C79.2609 54.803 77.698 56.3659 75.7809 56.3659ZM75.7809 51.7155C75.1341 51.7155 74.6106 52.2391 74.6106 52.8858C74.6106 53.5326 75.1341 54.0561 75.7809 54.0561C76.4276 54.0561 76.9511 53.5326 76.9511 52.8858C76.9511 52.2391 76.4276 51.7155 75.7809 51.7155Z" fill="#8D7A73"/>
<path d="M63.0934 49.9601C61.1762 49.9601 59.6133 48.3972 59.6133 46.4801C59.6133 44.563 61.1762 43 63.0934 43C65.0105 43 66.5734 44.563 66.5734 46.4801C66.5734 48.3972 65.0105 49.9601 63.0934 49.9601ZM63.0934 45.3098C62.4466 45.3098 61.9231 45.8333 61.9231 46.4801C61.9231 47.1268 62.4466 47.6504 63.0934 47.6504C63.7401 47.6504 64.2636 47.1268 64.2636 46.4801C64.2636 45.8333 63.7401 45.3098 63.0934 45.3098Z" fill="#8D7A73"/>
</g>
<defs>
<clipPath id="clip0_2085_1982">
<rect width="72.3809" height="85" fill="white" transform="translate(54 43)"/>
</clipPath>
</defs>
</svg>
